<?xml version="1.0" encoding="utf-8"?>
<!-- Generator: Adobe Illustrator 24.0.1, SVG Export Plug-In . SVG Version: 6.00 Build 0)  -->
<svg version="1.1" xmlns="http://www.w3.org/2000/svg" xmlns:xlink="http://www.w3.org/1999/xlink" x="0px" y="0px"
	 viewBox="0 0 300.79 90.85" style="enable-background:new 0 0 300.79 90.85;" xml:space="preserve">
<style type="text/css">
	.st0{clip-path:url(#SVGID_2_);}
	.st1{fill:#040000;stroke:#FFFFFF;stroke-width:3;stroke-miterlimit:10;}
	.st2{fill:#040000;stroke:#FFFFFF;stroke-width:1.5;stroke-miterlimit:10;}
</style>
<g id="レイヤー_1">
	<path class="st1" d="M155.11-3.94h-0.05c-2.59,0-4.66,2.1-4.66,4.69s2.12,4.69,4.71,4.69s4.69-2.1,4.69-4.69
		S157.69-3.94,155.11-3.94z"/>
	<path class="st1" d="M80.18-3.94h-0.05c-2.59,0-4.66,2.1-4.66,4.69s2.12,4.69,4.71,4.69c2.59,0,4.69-2.1,4.69-4.69
		S82.77-3.94,80.18-3.94z"/>
	<path class="st1" d="M275.07-3.94h-0.05c-2.59,0-4.66,2.1-4.66,4.69s2.12,4.69,4.71,4.69s4.69-2.1,4.69-4.69
		S277.66-3.94,275.07-3.94z"/>
	<path class="st2" d="M290.36,10.75h-87.85c-3.39-5.96-9.79-10-17.12-10h-69.98c-7.33,0-13.74,4.03-17.12,10H10.43
		c-5.34,0-9.68,4.34-9.68,9.68v49.99c0,5.34,4.34,9.68,9.68,9.68h87.85c3.39,5.96,9.79,10,17.12,10h69.98
		c7.33,0,13.74-4.03,17.12-10h87.85c5.34,0,9.68-4.34,9.68-9.68V20.43C300.04,15.09,295.7,10.75,290.36,10.75z M10.43,70.73
		c-0.17,0-0.31-0.14-0.31-0.31V20.43c0-0.17,0.14-0.31,0.31-0.31h85.3c0,0.1-0.01,0.21-0.01,0.31v49.99c0,0.1,0.01,0.21,0.01,0.31
		H10.43z M185.39,80.73h-69.98c-5.68,0-10.31-4.62-10.31-10.31V20.43c0-5.68,4.62-10.31,10.31-10.31h69.98
		c5.68,0,10.31,4.62,10.31,10.31v20.31h-10.62V25.43c0-2.59-2.1-4.69-4.69-4.69H120.4c-2.59,0-4.69,2.1-4.69,4.69v39.99
		c0,2.59,2.1,4.69,4.69,4.69h59.98c2.59,0,4.69-2.1,4.69-4.69V50.11h10.62v20.31C195.69,76.1,191.07,80.73,185.39,80.73z
		 M170.39,50.11h5.31v10.62h-50.61V30.12h50.61v10.62h-5.31c-2.59,0-4.69,2.1-4.69,4.69C165.7,48.01,167.8,50.11,170.39,50.11z
		 M205.07,70.42V20.43c0-0.1-0.01-0.21-0.01-0.31h20.31c8.44,0,15.31,6.87,15.31,15.31v19.99c0,8.44-6.87,15.31-15.31,15.31h-20.31
		C205.06,70.63,205.07,70.52,205.07,70.42z M290.67,70.42c0,0.17-0.14,0.31-0.31,0.31h-45.64c3.34-4.21,5.34-9.53,5.34-15.31V35.43
		c0-5.78-2-11.1-5.34-15.31h45.64c0.17,0,0.31,0.14,0.31,0.31V70.42z"/>
</g>
<g id="レイヤー_2">
</g>
</svg>
