<svg xmlns="http://www.w3.org/2000/svg" viewBox="0 0 176.81 126.22"><defs><style>.cls-1{fill:#2a2c2c;}</style></defs><title>アセット 4</title><g id="レイヤー_2" data-name="レイヤー 2"><g id="レイヤー_1-2" data-name="レイヤー 1"><rect class="cls-1" x="43.97" y="51.84" width="2.76" height="89.2" transform="translate(-61.05 102.62) rotate(-68.14)"/><path class="cls-1" d="M27,49.2a87.05,87.05,0,0,1-14.75-1.41l-.66-.11.16-1.36L10.37,46c.3-1.29,1.5-1.07,2.38-.93,14.61,2.54,25.77,1.48,31.4-3,9-7.15,7-20.09,7-20.22l2.73-.45c.1.6,2.29,14.69-8,22.83C41.72,47.53,35.32,49.2,27,49.2Z"/><path class="cls-1" d="M85.83,126.22,0,90.8,21,0,88.4,12,155.8,0l21,90.8L91,126.22,88.4,111.59Zm2.57-30.6,4.7,26.73,80.49-33.21-19.89-86L88.4,14.81,23.11,3.18l-19.89,86,80.49,33.21Z"/><polygon class="cls-1" points="88.41 29.35 18.63 16.7 19.13 13.98 88.41 26.54 157.68 13.98 158.18 16.7 88.41 29.35"/><rect class="cls-1" x="86.86" y="95.06" width="89.2" height="2.76" transform="translate(-26.47 55.93) rotate(-21.88)"/><path class="cls-1" d="M149.78,49.2c-8.29,0-14.69-1.66-18.84-5-10.29-8.14-8.1-22.23-8-22.83l2.73.45c0,.13-2,13.1,7,20.22,5.63,4.45,16.78,5.51,31.4,3,.88-.14,2.08-.35,2.38.93l-1.34.31.09,1.38-.66.11A87.05,87.05,0,0,1,149.78,49.2Z"/><rect class="cls-1" x="87.02" y="27.95" width="2.76" height="74.14"/></g></g></svg>