<svg xmlns="http://www.w3.org/2000/svg" viewBox="0 0 236.5 269.25"><defs><style>.cls-1{fill:#2a2c2c;}</style></defs><title>アセット 5</title><g id="レイヤー_2" data-name="レイヤー 2"><g id="レイヤー_1-2" data-name="レイヤー 1"><path class="cls-1" d="M215.26,269.25l-125.6-35,0-1.07c0-.29,1.49-29.32,19.2-68.94,17.78-39.8,37.54-51.61,38.37-52.09l.48-.29,81.1,22.61.27.49c.46.85,11.26,21.18,5.89,64.43-5.34,43.07-19.1,68.68-19.24,68.93Zm-122.81-37,121.46,33.86c2.48-5,13.74-29.1,18.44-67,4.81-38.68-3.76-59-5.34-62.31l-78.87-22c-3.06,2-20.9,15-36.8,50.56C95.75,200.21,92.9,226.7,92.45,232.22Z"/><rect class="cls-1" x="183.07" y="86.97" width="2.69" height="100.25" transform="translate(2.85 277.93) rotate(-74.42)"/><path class="cls-1" d="M117.6,108.34l-.13-.17c-.1-.12-10.25-11.64-12.08-19-2-7.88-.85-16.5.15-21.48l26.06,58.69c.7-.91,1.4-1.78,2.1-2.64l-29.31-66L95.7,18.37,92.78,19l8.72,39.47,2,4.63c-.77,2.77-3.89,15.24-1,26.75,1.93,7.82,11.62,19,12.66,20.2,4.2,6.51,7.76,16.6,10.22,24.84.73-1.07,1.46-2.12,2.19-3.14C125.08,123.79,121.66,114.6,117.6,108.34Z"/><polygon class="cls-1" points="69.57 3.96 70.22 0.75 34.6 8.62 36.54 11.26 69.57 3.96"/><path class="cls-1" d="M105,166.32a12.36,12.36,0,0,0,1.62-.47c.8-.29,1.59-.61,2.38-.95.06-.13.1-.25.16-.38.55-1.3,1.11-2.56,1.68-3.82a42.76,42.76,0,0,1-5.23,2.33c-9.84,3.58-18.44-10.68-19.47-12.44l-21-95-1.52-6.86L72.62,4l22,8,.45-.11c5-1.27,13-2.19,15-.34,2.52,3,22.62,56.49,39.2,101.62l3.57,1c-13.2-36-37.72-102.07-40.7-104.8-3.77-3.46-14.29-1.26-17.34-.52L70.36,0l-.15.75,1-.21.65,2.92L69.57,4,61.34,45.11,36.54,11.26l-2.24.49-.65-2.92,1-.21L34.15,8,15.77,26.29c-3.06.62-13.54,3.05-15.51,7.78s7.14,111.37,9,132.72l.12,1.42,22.82-.81L30.76,84.18c3,4.1,7.63,11.44,9.18,19.43,1.45,7.45-2.89,22.18-2.94,22.33l0,.22c-2.18,15.33,3.49,41,3.74,42.09l.18.82.81.27c.68.23,16.8,5.49,29.42,4.36a12.65,12.65,0,0,0,1.67-.26c8.68-1.91,11.82-12.19,12.92-18.08C89.18,160.24,96.35,168.24,105,166.32Zm-34.19,4.4c-10.45.93-24-2.92-27.4-4-1-4.58-5.39-26.76-3.53-40.06.44-1.51,4.51-15.75,3-23.65C40.62,91.4,32.54,81.4,30.68,79.21l-.08-4.75L21.84,34.69l-2.92.65,8.69,39.32,1.52,89.85-17,.61C7.78,114.73,1.89,39.55,3,35.22c1.08-2.59,8.69-5.12,13.75-6.07l.45-.09L33.8,12.58l27,36.79,22.5,101.87C83.07,153.3,81.25,169.8,70.84,170.72Z"/></g></g></svg>