<svg id="_x32_" xmlns="http://www.w3.org/2000/svg" viewBox="0 0 512 512" style="width:256px;height:256px"><style>.st0{fill:#FFFFFF}</style><path class="st0" d="M437 75C390.8 28.7 326.6 0 256 0S121.2 28.7 75 75C28.7 121.2 0 185.4 0 256s28.7 134.8 75 181c46.2 46.3 110.4 75 181 75s134.8-28.7 181-75c46.3-46.3 75-110.4 75-181s-28.7-134.8-75-181zm-33.4 328.6c-37.9 37.8-89.9 61.1-147.6 61.1-57.7 0-109.7-23.3-147.6-61.1-37.8-37.9-61.1-89.9-61.1-147.6 0-57.7 23.3-109.7 61.1-147.6 37.9-37.8 89.9-61.1 147.6-61.1 57.7 0 109.7 23.3 147.6 61.1 37.8 37.8 61.1 89.9 61.1 147.6 0 57.7-23.3 109.7-61.1 147.6z" fill="#FFF"/><path class="st0" d="M251.7 194.3c21.4 0 38.7-17.3 38.7-38.7 0-21.4-17.4-38.7-38.7-38.7-21.4 0-38.7 17.3-38.7 38.7 0 21.4 17.3 38.7 38.7 38.7zM299.2 362.8h-5.3c-5.4 0-9.8-4.4-9.8-9.7V216.7c0-1.8-1-3.5-2.5-4.4-1.5-1-3.4-1-5-.1l-66.5 37c-19.4 9.7-10 21.2-3 21 7.3-.3 28.8-2.4 28.8-2.4v85.3c0 5.4-4.4 9.7-9.8 9.7h-10.3c-2.7 0-5 2.2-5 4.9V389c0 2.7 2.3 4.9 5 4.9H299c2.7 0 4.9-2.2 4.9-4.9v-21.3c0-2.7-2.1-4.9-4.8-4.9z" fill="#FFF"/></svg>