<svg id="_x32_" xmlns="http://www.w3.org/2000/svg" viewBox="0 0 512 512" style="width:256px;height:256px"><style>.st0{fill:#FFFFFF}</style><path class="st0" d="M503.58 162.16c-.73-1.38-4.76-8.98-10.17-19.32-5.22-9.9-11.63-22.07-17.95-33.97-25.91-48.9-86.9-95.31-127.54-97.42-1.01-.2-1.92-.2-2.93-.2l-12.9.29-2.3 6.13-2.1 5.86c-.63 1.74-15.47 41.2-63.44 45.32l-3.94.28c-1.37.09-2.84.09-4.3.09-2.3 0-4.4-.1-6.5-.2-1.38-.08-2.66-.26-3.94-.35-46.15-5.13-60.61-43.4-61.25-45.15l-2.38-6.6-2.01-5.4-12.91-.27c-1.74 0-3.57.09-5.4.37-40.56 3.76-99.71 49.35-125.07 97.24-6.32 11.9-12.73 24.08-17.95 33.97-5.4 10.35-9.43 17.95-10.16 19.32L0 177.17l14.47 9.24 73.15 47.07 15.75 10.07 9.7-15.93 4.58-7.32c2.93 20.14 4.4 48.44-.09 85.88-7.14 60.61-14.37 94.76-18.59 115.1-5.04 23.71-8.33 39.65 8.24 50.45 6.77 4.58 46.51 29.02 148.78 29.02s142-24.45 148.78-29.02c16.57-10.8 13.27-26.73 8.24-50.45-4.21-20.33-11.45-54.48-18.59-115.1-4.49-37.45-3.02-65.74-.1-85.88l4.58 7.32 9.7 15.93 15.75-10.07 73.16-47.07 14.49-9.24-8.42-15.01zM345 29.57h1.47c8.24 8.88 13.28 20.69 13.28 33.79 0 13.82-5.59 26.18-14.65 35.25-9.07 9.07-21.43 14.65-35.25 14.65s-26.18-5.58-35.25-14.65c-3.39-3.39-6.32-7.23-8.6-11.54 60.87-5.22 79-57.5 79-57.5zm-178 0s17.67 51.09 76.9 57.31c-2.29 4.31-5.22 8.24-8.7 11.72-9.07 9.07-21.43 14.65-35.25 14.65s-26.18-5.58-35.25-14.65c-9.06-9.07-14.65-21.42-14.65-35.25 0-13 4.94-24.72 13.19-33.6 1.29-.09 2.57-.18 3.76-.18zM414.49 218l-15.02-24.08c4.67-16.48 9.34-30.12 10.8-34.8.36-1.38.64-2.11.64-2.11l-17.49-5.4c0 .09-3.75 12.09-7.97 28.84-5.49 13.82-17.95 54.94-9.25 128 15.29 128.18 30.49 140.36 18.31 147.96 0 0-34.8 26-138.53 26s-138.53-26-138.53-26c-12.18-7.6 3.02-19.78 18.31-147.96 8.7-73.06-3.75-114.17-9.25-128-4.21-16.76-7.97-28.75-7.97-28.84l-17.48 5.4s.27.73.64 2.11c1.47 4.67 6.13 18.31 10.8 34.8L97.51 218l-73.16-46.88c1.47-2.65 15.3-29.02 28.38-53.84 19.05-35.8 57.87-68.4 89-81.58-4.12 8.33-6.32 17.77-6.32 27.66 0 35.61 28.93 64.55 64.55 64.55 23.26 0 43.67-12.37 54.94-30.86 11.26 18.49 31.68 30.86 54.94 30.86 35.62 0 64.55-28.93 64.55-64.55 0-10.35-2.47-20.14-6.87-28.75 31.5 12.37 72.15 45.78 91.74 82.68 13.1 24.81 26.92 51.18 28.38 53.84L414.49 218z" fill="#FFF"/><path class="st0" d="M257.19 151.26c-7.6 0-13.73 6.15-13.73 13.73s6.15 13.73 13.73 13.73c7.59 0 13.73-6.15 13.73-13.73 0-7.59-6.14-13.73-13.73-13.73zM257.19 230.61c-7.6 0-13.73 6.15-13.73 13.73s6.15 13.73 13.73 13.73c7.59 0 13.73-6.15 13.73-13.73s-6.14-13.73-13.73-13.73zM257.19 309.96c-7.6 0-13.73 6.15-13.73 13.73s6.15 13.74 13.73 13.74c7.59 0 13.73-6.16 13.73-13.74s-6.14-13.73-13.73-13.73zM257.9 389.33c-7.57-.4-14.03 5.43-14.43 13-.4 7.57 5.42 14.04 13 14.43 7.58.4 14.04-5.42 14.44-13 .39-7.56-5.43-14.04-13.01-14.43z" fill="#FFF"/></svg>