<svg xmlns="http://www.w3.org/2000/svg" viewBox="0 0 512 512" style="width:256px;height:256px"><path d="M439.5 225.2c63.8-95.2 44.7-175.4-14.4-209-55.4-31.4-87.5-3-122.8 6.7-44.7-29.8-107.1-33.4-185 6-38.3-1.6-84.5 36.7-76.6 73.4 3.2 15 14.4 24.5 26.5 30.7-.6 5.3-.6 10.4.1 15 1.3 8.6 2 16 2 22.7-7 3-24.2 9.4-36.6 8.2 0 0 14 11.2 34.2 11.3-3.2 11.5-9.8 21.8-21 34.4-11.9 13.6 1 21.3 6.4 24.5 5.3 3.2 8.5 16 3.2 21.3-5.3 5.3 0 8.5 4.3 11.7 4.3 3.2-4.5 12 0 14.9 11.7 7.4 6.4 20.2 7.4 28.7s8.8 22 39.3 11.7c49-16.5 67 26.6 78.7 64.9 11.7 38.3-41 100.5-41 100.5-22.3 25.5 81.3-8 122.8-24 22.8-8.8 75.5-33.5 61.7-47.8 0 0-26.6-14.4-41-41.5-17.6-33.3-16.7-57.3-13.3-65 15.9-35.7 69.9-84.6 85-139.3 10.3-27.8 14-58.5 1.6-87.7-4.6-10.7-9.9-20.8-15.9-30 26.4 5.5 61 23.4 43 80.6-18 57.4-63.8 138.2-24 195 33.3 47.6 86.1 32 86.1 32-23.5-28.7-62.4-72.7-10.7-149.9z" fill="#FFF"/></svg>