<svg xmlns="http://www.w3.org/2000/svg" width="512" height="512" style="width:256px;height:256px"><path d="M412.4 174.7l40 57.7h-45.2l-40-57.7h-57l40 57.7h-45.3l-40-57.7h-57l40 57.7h-45.2l-40-57.7h-57l40 57.7h-45.3l-38.5-55.6 397.9-111-4.5-16-1-3.4-6.2-22.2C444.1 10 431.6.7 417.6 0l-21.7 62.6-43.5 12.1 22.4-64.8-55 15.3L297.4 90l-43.5 12.1 22.4-64.8-55 15.3-22.4 64.8-43.5 12.1L177.9 65l-55 15.3-22.4 64.8L57 157.2l22.4-64.8-18.5 5.2c-17.7 5-28 23.3-23.1 41l6.2 22.2-1.3.4 5.4 19.5 1.3-.4v298.2c0 18.4 15 33.3 33.3 33.3h359.5c18.4 0 33.3-15 33.3-33.3V174.7h-63.1z" fill="#FFF"/></svg>