<svg xmlns="http://www.w3.org/2000/svg" viewBox="0 0 385.62 262.17"><defs><style>.cls-1{fill:#595757;}</style></defs><title>アセット 1</title><g id="レイヤー_2" data-name="レイヤー 2"><g id="レイヤー_1-2" data-name="レイヤー 1"><path class="cls-1" d="M255.94,63.26A70.74,70.74,0,0,0,257.53,47a1.19,1.19,0,0,0-2.11-.76,39.83,39.83,0,0,1-20.79,11.8c-14,3-20,4.84-22.6,18.94H194.89V59.85c14.11-2.56,16-8.54,18.94-22.59a40.16,40.16,0,0,1,11.8-20.8,1.21,1.21,0,0,0,.37-1.32,1.34,1.34,0,0,0-1.33-.79A70,70,0,0,0,208.46,16c-1.46-3.37-7-14.9-14.76-16h-.33C185.65,1.08,180.24,12.52,178.78,16a70.83,70.83,0,0,0-16.05-1.6h0a1.29,1.29,0,0,0-1.32.79,1.2,1.2,0,0,0,.36,1.32,39.91,39.91,0,0,1,11.8,20.8c3,14.05,4.84,20,18.94,22.59V77H175.37c-2.56-14.11-8.54-16-22.6-18.94A40.09,40.09,0,0,1,132,46.25a1.19,1.19,0,0,0-2.11.76,70.4,70.4,0,0,0,1.64,16.41c-3.37,1.47-14.91,7-16,14.77a1.71,1.71,0,0,0,0,.32C116.6,86.23,128,91.65,131.47,93.1a71.35,71.35,0,0,0-1.6,16.25,1.2,1.2,0,0,0,.79,1.13,1.46,1.46,0,0,0,.4.07,1.17,1.17,0,0,0,.92-.44,39.9,39.9,0,0,1,20.79-11.8c14.06-3,20-4.83,22.6-18.93h17.14V96.51c-14.1,2.57-16,8.55-18.94,22.6a40,40,0,0,1-11.8,20.79,1.21,1.21,0,0,0-.36,1.33,1.32,1.32,0,0,0,1.32.79h0a70.54,70.54,0,0,0,16.21-1.64c1.47,3.37,7,14.9,14.76,16H194c7.7-1.07,13.13-12.5,14.59-15.93a70.83,70.83,0,0,0,16,1.6,1.32,1.32,0,0,0,1.33-.8,1.21,1.21,0,0,0-.37-1.32,40.05,40.05,0,0,1-11.8-20.79c-3-14-4.83-20-18.94-22.6V79.38H212c2.57,14.1,8.55,16,22.6,18.93a39.9,39.9,0,0,1,20.79,11.8,1.18,1.18,0,0,0,.92.44,1.53,1.53,0,0,0,.41-.07,1.2,1.2,0,0,0,.78-1.13,70.54,70.54,0,0,0-1.63-16.41c3.37-1.47,14.9-7,16-14.76a.92.92,0,0,0,0-.33C270.8,70.12,259.36,64.72,255.94,63.26ZM242.91,77H214.44c2.3-12.11,7.2-13.75,20.68-16.6a42.86,42.86,0,0,0,20-10.39C254.36,76.33,243,77,242.91,77Zm-1.76,2.39h1.76c.11,0,11.45.65,12.2,27a42.77,42.77,0,0,0-20-10.39c-13.48-2.86-18.38-4.5-20.68-16.6Zm8.61,1.05a13.08,13.08,0,0,0-3-2.25,12.52,12.52,0,0,0,3-2.25c1.92-1.91,4-5.1,5.56-10.33,3.41,1.52,13.16,6.34,14.16,12.41-1,6.16-10.83,11.07-14.21,12.59C253.74,85.47,251.66,82.32,249.76,80.43Zm-54.87,47V98.92c12.11,2.3,13.75,7.2,16.61,20.68a42.72,42.72,0,0,0,10.39,20C195.67,138.85,194.9,127.6,194.89,127.39Zm-29.37,12.2a42.86,42.86,0,0,0,10.39-20c2.85-13.48,4.49-18.38,16.6-20.68V127.4h0s-.06,2.47-2.75,5.15C186.76,135.56,180.12,139.18,165.52,139.59Zm25.93-5.35a12.59,12.59,0,0,0,2.25-3,12.87,12.87,0,0,0,2.25,3c1.91,1.91,5.1,4,10.33,5.56C204.78,143.23,200,153,193.87,154c-6.15-1-11.07-10.83-12.59-14.21C186.42,138.22,189.56,136.13,191.45,134.24ZM192.51,29V57.44c-12.11-2.29-13.75-7.2-16.6-20.68a42.92,42.92,0,0,0-10.39-20C191.85,17.52,192.51,28.86,192.51,29Zm29.38-12.2a42.77,42.77,0,0,0-10.39,20c-2.86,13.49-4.5,18.39-16.61,20.68V29s.07-2.48,2.75-5.16C200.64,20.8,207.28,17.18,221.89,16.77ZM196,22.12a13.29,13.29,0,0,0-2.25,3,13,13,0,0,0-2.25-3c-1.91-1.91-5.1-4-10.33-5.56,1.51-3.41,6.31-13.15,12.41-14.16,6.11,1,11.06,10.84,12.59,14.21C201,18.15,197.84,20.23,196,22.12ZM146.25,77h-1.76s-2.48-.06-5.16-2.74c-3-3-6.63-9.65-7-24.25a42.86,42.86,0,0,0,20,10.39C165.76,63.24,170.66,64.88,173,77Zm-8.61-1.06a13,13,0,0,0,3,2.25,12.91,12.91,0,0,0-3,2.25c-1.91,1.91-4,5.1-5.56,10.33-3.41-1.51-13.16-6.31-14.16-12.41,1-6.15,10.84-11.07,14.21-12.59C133.67,70.9,135.75,74,137.64,75.93Zm6.85,3.45H173c-2.29,12.1-7.2,13.74-20.68,16.6a42.77,42.77,0,0,0-20,10.39C133,80.16,144.27,79.39,144.49,79.38Z"/><path class="cls-1" d="M222.89,49.06a1.16,1.16,0,0,0,.89.43c6.47,0,11.56-1.87,15.15-5.54,5.47-5.61,5.55-13.61,5.51-15.15A1.18,1.18,0,0,0,244,28a1.21,1.21,0,0,0-.88-.43c-2.18,0-9.77.27-15.14,5.51-3.68,3.58-5.54,8.68-5.54,15.14A1.17,1.17,0,0,0,222.89,49.06ZM242,29.91c-.09,2.52-.77,8.22-4.82,12.37-2.91,3-7.07,4.58-12.33,4.78.2-5.26,1.79-9.41,4.78-12.32C233.84,30.67,239.6,30,242,29.91Z"/><path class="cls-1" d="M223.54,107.12a1.46,1.46,0,0,0-1.31,1.31c0,6.46,1.86,11.56,5.53,15.14,5.25,5.12,12.63,5.52,14.77,5.52h.39a1.18,1.18,0,0,0,.83-.37s0,0,0-.05a1.16,1.16,0,0,0,.42-.87c0-1.54,0-9.53-5.51-15.14C235.1,109,230,107.12,223.54,107.12Zm13.44,7.2c4.05,4.15,4.73,9.86,4.82,12.37-2.41-.09-8.21-.76-12.37-4.83-3-2.91-4.58-7.06-4.78-12.32C229.91,109.74,234.07,111.33,237,114.32Z"/><path class="cls-1" d="M164.18,107.3a1.2,1.2,0,0,0-.9-.42c-6.46,0-11.56,1.86-15.14,5.54-5.47,5.6-5.55,13.6-5.51,15.15a1.18,1.18,0,0,0,.41.86.13.13,0,0,1,0,0,1.23,1.23,0,0,0,.88.37h.35c2.14,0,9.51-.39,14.76-5.51,3.67-3.59,5.54-8.68,5.54-15.15A1.18,1.18,0,0,0,164.18,107.3ZM145,126.45c.1-2.52.78-8.22,4.83-12.37,2.91-3,7.06-4.58,12.32-4.78-.2,5.26-1.79,9.42-4.78,12.33C153.24,125.68,147.54,126.36,145,126.45Z"/><path class="cls-1" d="M163.52,49.25h0a1.17,1.17,0,0,0,.89-.42,1.18,1.18,0,0,0,.43-.9c0-6.46-1.87-11.56-5.54-15.14-5.59-5.45-13.6-5.54-15.15-5.51a1.21,1.21,0,0,0-.84.37.53.53,0,0,1-.06.1,1.09,1.09,0,0,0-.38.81c0,1.55,0,9.55,5.51,15.15C152,47.39,157.06,49.25,163.52,49.25Zm-13.43-7.2c-4.05-4.15-4.73-9.86-4.83-12.38,2.41.09,8.2.76,12.37,4.83,3,2.91,4.58,7.06,4.78,12.32C157.15,46.62,153,45,150.09,42.05Z"/><path class="cls-1" d="M27,253.16a9.76,9.76,0,0,0,.49,3.68,1.91,1.91,0,0,0,1.92,1.05,4.21,4.21,0,0,0,1.35-.19,9.4,9.4,0,0,0,1.5-.79.44.44,0,0,1,.49,0,1.58,1.58,0,0,1,.45.41,1.79,1.79,0,0,1,.26.6.58.58,0,0,1-.15.57A8.76,8.76,0,0,1,26.42,262a5.93,5.93,0,0,1-3.71-1.17,7.36,7.36,0,0,1-2.29-2.74c-.1-.25-.25-.27-.45-.07a17.14,17.14,0,0,1-4.54,2.85A16.4,16.4,0,0,1,8.93,262a9,9,0,0,1-6.6-2.29A8.68,8.68,0,0,1,0,253.23a9.09,9.09,0,0,1,5-8.29q5-2.9,14.64-2.89c.1,0,.17-.13.22-.38A11.37,11.37,0,0,0,20,240v-2a19.76,19.76,0,0,0-.3-3.53,8.9,8.9,0,0,0-1-2.89,5.18,5.18,0,0,0-2-1.95,6.33,6.33,0,0,0-3.15-.71A8.37,8.37,0,0,0,9,229.92a3.26,3.26,0,0,0-1.73,2.82,2.86,2.86,0,0,0,.53,1.61A2.9,2.9,0,0,1,8.33,236a2.78,2.78,0,0,1-1,2,3.57,3.57,0,0,1-2.55,1,3.46,3.46,0,0,1-2.89-1.09A4.1,4.1,0,0,1,1,235.22a6.59,6.59,0,0,1,1-3.57,9.56,9.56,0,0,1,2.85-2.89,15.29,15.29,0,0,1,4.2-1.91,17.43,17.43,0,0,1,5-.72q6,0,9.46,2.78T27,238.14Zm-7-7.43a3.85,3.85,0,0,0-.08-1c-.05-.12-.17-.18-.37-.18q-6.16.53-9.12,2.59a6.45,6.45,0,0,0-1.84,9.08,4.35,4.35,0,0,0,3.75,1.54,11,11,0,0,0,3.64-.68,10.72,10.72,0,0,0,3.42-1.95,1.73,1.73,0,0,0,.6-1.2Z"/><path class="cls-1" d="M51.5,252.18c0,1.25,0,2.3.07,3.15a6.8,6.8,0,0,0,.41,2.11,2.59,2.59,0,0,0,1.13,1.27,6.63,6.63,0,0,0,2.22.68,1,1,0,0,1,.67.41,1.41,1.41,0,0,1,.23.79,1.25,1.25,0,0,1-.23.71.74.74,0,0,1-.67.34,28.29,28.29,0,0,1-2.82-.26,33.28,33.28,0,0,0-4.32-.27,39,39,0,0,0-4.65.27,37.67,37.67,0,0,1-4.21.26.68.68,0,0,1-.6-.34,1.24,1.24,0,0,1-.22-.71,1.4,1.4,0,0,1,.22-.79,1,1,0,0,1,.68-.41,13.37,13.37,0,0,0,2.89-.6,2.94,2.94,0,0,0,1.5-1.13,3.94,3.94,0,0,0,.56-2c0-.8.08-1.83.08-3.08v-9.46q0-3.67-.08-6.11a14.86,14.86,0,0,0-.52-3.87,3.34,3.34,0,0,0-1.43-2,5.67,5.67,0,0,0-2.78-.56.9.9,0,0,1-.71-.3,1,1,0,0,1-.26-.68,1.12,1.12,0,0,1,.26-.75.9.9,0,0,1,.71-.3,28,28,0,0,0,4.17-.45,46.13,46.13,0,0,0,5.59-1.28,1.34,1.34,0,0,1,1.58.42,2.64,2.64,0,0,1,.53,1.61v3c0,.1,0,.17.11.19s.14,0,.19-.11a13.2,13.2,0,0,1,1.46-1.84,13.49,13.49,0,0,1,5.22-3.42,10.68,10.68,0,0,1,3.68-.6q5.63,0,8.82,3.12t3.19,10.1v12.83c0,1.35,0,2.45.11,3.3a5.54,5.54,0,0,0,.52,2.07,2.72,2.72,0,0,0,1.28,1.2,8.57,8.57,0,0,0,2.44.64,1,1,0,0,1,.68.41,1.4,1.4,0,0,1,.22.79,1.24,1.24,0,0,1-.22.71.76.76,0,0,1-.68.34c-.65,0-1.71-.09-3.19-.26a38,38,0,0,0-9,0,32.18,32.18,0,0,1-3.6.26.68.68,0,0,1-.6-.34,1.24,1.24,0,0,1-.22-.71,1.4,1.4,0,0,1,.22-.79,1,1,0,0,1,.68-.41,7.86,7.86,0,0,0,2.51-.68,2.9,2.9,0,0,0,1.28-1.24,4.9,4.9,0,0,0,.49-2c0-.77.07-1.74.07-2.89V241.22q0-1.87-.15-3.75a10.17,10.17,0,0,0-.83-3.38,6.35,6.35,0,0,0-1.95-2.48,5.68,5.68,0,0,0-3.53-1,10.19,10.19,0,0,0-3.94.71,8.73,8.73,0,0,0-2.85,1.92,7.87,7.87,0,0,0-1.76,2.81,9.77,9.77,0,0,0-.6,3.42Z"/><path class="cls-1" d="M135.2,209.32a22.41,22.41,0,0,1,6.23.82,35.71,35.71,0,0,1,5.63,2.18l1.54.71a2.87,2.87,0,0,0,1.23.34c.8,0,1.33-.47,1.58-1.43a.72.72,0,0,1,.49-.45,1.94,1.94,0,0,1,.82-.11,2.11,2.11,0,0,1,.72.19.36.36,0,0,1,.22.45,15.46,15.46,0,0,0-.41,2.48c-.08.85-.11,1.72-.11,2.62a29.7,29.7,0,0,0,.3,4.21q.3,2.1.6,4.35a.56.56,0,0,1-.34.49,2,2,0,0,1-.83.23,2.43,2.43,0,0,1-.93-.12.7.7,0,0,1-.53-.52q-1.87-6.76-6.08-9.95a17,17,0,0,0-10.58-3.19,14.73,14.73,0,0,0-8.19,2.1,15.84,15.84,0,0,0-5.14,5.44,23,23,0,0,0-2.66,7.36,41.85,41.85,0,0,0-.75,7.85,40,40,0,0,0,.9,8.4,24.72,24.72,0,0,0,2.92,7.59,16.92,16.92,0,0,0,5.3,5.51,14.07,14.07,0,0,0,7.92,2.14,29.35,29.35,0,0,0,6.45-.64,10.62,10.62,0,0,0,4.81-2.36,16.25,16.25,0,0,0,3.82-5.22,25.23,25.23,0,0,0,2-6.87.75.75,0,0,1,.49-.67,1.47,1.47,0,0,1,.86,0,2.23,2.23,0,0,1,.83.41c.25.2.35.4.3.61-.15,1-.25,2-.3,3s-.08,2-.08,3c0,1.7.06,3.44.19,5.21s.24,3.64.34,5.59a.8.8,0,0,1-.3.68,1.47,1.47,0,0,1-1.5.11.77.77,0,0,1-.45-.56,4.46,4.46,0,0,0-.53-1.31,3.08,3.08,0,0,0-1-1.05,2.41,2.41,0,0,0-1.42-.42,3.77,3.77,0,0,0-1.73.53,34.09,34.09,0,0,1-3.19,1.54,20.88,20.88,0,0,1-3.11,1,22.87,22.87,0,0,1-3.31.53q-1.72.15-3.75.15-13.29,0-19.71-6.65t-6.41-19a31.29,31.29,0,0,1,2-11.67,24.09,24.09,0,0,1,5.6-8.52,23.36,23.36,0,0,1,8.48-5.22A31.6,31.6,0,0,1,135.2,209.32Z"/><path class="cls-1" d="M174.38,231.54c.1.25.23.25.38,0a13.55,13.55,0,0,1,4.84-4,12.88,12.88,0,0,1,5.74-1.43q6.39,0,9.2,3.49a14.14,14.14,0,0,1,2.81,9.13v13.88c0,1.3,0,2.35.11,3.15a4.72,4.72,0,0,0,.53,1.92,2.45,2.45,0,0,0,1.31,1.05,15.24,15.24,0,0,0,2.48.64.93.93,0,0,1,.68.45,1.44,1.44,0,0,1,.22.75,1.24,1.24,0,0,1-.22.71.68.68,0,0,1-.6.34,29.89,29.89,0,0,1-3.19-.26,35.13,35.13,0,0,0-4.4-.27,40.84,40.84,0,0,0-4.72.27,37.7,37.7,0,0,1-4,.26.76.76,0,0,1-.68-.34,1.24,1.24,0,0,1-.22-.71,1.4,1.4,0,0,1,.22-.79,1,1,0,0,1,.75-.41,11.63,11.63,0,0,0,2.67-.6,2.59,2.59,0,0,0,1.35-1.13,5,5,0,0,0,.52-2c.08-.8.12-1.83.12-3.08V241.3a26.52,26.52,0,0,0-.27-3.76,12,12,0,0,0-1-3.41,6.37,6.37,0,0,0-2.07-2.52,6,6,0,0,0-3.6-1,8.61,8.61,0,0,0-4.09.9,9.45,9.45,0,0,0-2.78,2.18,8.79,8.79,0,0,0-1.61,2.7,7.33,7.33,0,0,0-.53,2.48v13.28c0,1.35,0,2.47.08,3.34a5.4,5.4,0,0,0,.45,2.07,2.6,2.6,0,0,0,1.16,1.16,7.23,7.23,0,0,0,2.22.64,1,1,0,0,1,.75.45,1.44,1.44,0,0,1,.22.75,1.24,1.24,0,0,1-.22.71.76.76,0,0,1-.68.34,28,28,0,0,1-3-.26,33.28,33.28,0,0,0-4.32-.27,37.24,37.24,0,0,0-4.58.27,33.93,33.93,0,0,1-3.9.26.76.76,0,0,1-.68-.34,1.24,1.24,0,0,1-.22-.71,1.4,1.4,0,0,1,.22-.79,1,1,0,0,1,.76-.41,11.53,11.53,0,0,0,2.66-.6,2.77,2.77,0,0,0,1.39-1.13,4.54,4.54,0,0,0,.56-2c.08-.8.11-1.83.11-3.08v-29.5c0-2.15,0-3.87-.15-5.14a7.21,7.21,0,0,0-.75-3,3,3,0,0,0-1.8-1.42,18,18,0,0,0-3.3-.6.6.6,0,0,1-.56-.38,2.16,2.16,0,0,1-.23-.75,1.45,1.45,0,0,1,.15-.75.67.67,0,0,1,.64-.38c1.45-.1,3.23-.25,5.33-.45a31.16,31.16,0,0,0,5.93-1.12c.7-.2,1.16-.16,1.39.11a1.89,1.89,0,0,1,.41.86Z"/><path class="cls-1" d="M237.21,253.16a9.76,9.76,0,0,0,.49,3.68,1.91,1.91,0,0,0,1.92,1.05,4.21,4.21,0,0,0,1.35-.19,9.4,9.4,0,0,0,1.5-.79.44.44,0,0,1,.49,0,1.58,1.58,0,0,1,.45.41,1.79,1.79,0,0,1,.26.6.58.58,0,0,1-.15.57,8.75,8.75,0,0,1-6.91,3.53,5.93,5.93,0,0,1-3.71-1.17,7.36,7.36,0,0,1-2.29-2.74c-.1-.25-.25-.27-.45-.07a17.14,17.14,0,0,1-4.54,2.85,16.4,16.4,0,0,1-6.5,1.13,9,9,0,0,1-6.6-2.29,8.68,8.68,0,0,1-2.33-6.5,9.09,9.09,0,0,1,5-8.29q5-2.9,14.64-2.89c.1,0,.17-.13.22-.38a11.37,11.37,0,0,0,.08-1.72v-2a19.76,19.76,0,0,0-.3-3.53,8.9,8.9,0,0,0-1-2.89,5.15,5.15,0,0,0-2-1.95,6.39,6.39,0,0,0-3.16-.71,8.37,8.37,0,0,0-4.5,1.08,3.26,3.26,0,0,0-1.73,2.82,2.86,2.86,0,0,0,.53,1.61,2.9,2.9,0,0,1,.52,1.62,2.78,2.78,0,0,1-1.05,2,3.57,3.57,0,0,1-2.55,1,3.46,3.46,0,0,1-2.89-1.09,4.1,4.1,0,0,1-.86-2.66,6.59,6.59,0,0,1,1.05-3.57,9.56,9.56,0,0,1,2.85-2.89,15.29,15.29,0,0,1,4.2-1.91,17.43,17.43,0,0,1,5-.72q6,0,9.46,2.78t3.45,9.23Zm-7.05-7.43a3.85,3.85,0,0,0-.08-1c-.05-.12-.17-.18-.37-.18q-6.17.53-9.12,2.59a6.45,6.45,0,0,0-1.84,9.08,4.35,4.35,0,0,0,3.75,1.54,10.94,10.94,0,0,0,3.64-.68,10.72,10.72,0,0,0,3.42-1.95,1.73,1.73,0,0,0,.6-1.2Z"/><path class="cls-1" d="M262,252.18c0,1.25,0,2.3.11,3.15a3.72,3.72,0,0,0,.79,2.11,4.3,4.3,0,0,0,2.1,1.27,19.91,19.91,0,0,0,4.13.68,1,1,0,0,1,.67.41,1.41,1.41,0,0,1,.23.79,1.25,1.25,0,0,1-.23.71.74.74,0,0,1-.67.34,56.21,56.21,0,0,1-5.71-.26,43.72,43.72,0,0,0-4.73-.27,41.8,41.8,0,0,0-4.76.27,44.56,44.56,0,0,1-4.77.26.68.68,0,0,1-.6-.34,1.25,1.25,0,0,1-.23-.71,1.41,1.41,0,0,1,.23-.79,1,1,0,0,1,.67-.41,13.44,13.44,0,0,0,3.27-.68,3.44,3.44,0,0,0,1.69-1.24,4.21,4.21,0,0,0,.64-2c.07-.77.11-1.74.11-2.89v-11c0-2.45-.05-4.39-.15-5.81a9.46,9.46,0,0,0-.71-3.31A2.87,2.87,0,0,0,252.3,231a15.2,15.2,0,0,0-3.3-.52.6.6,0,0,1-.56-.38,1.58,1.58,0,0,1,0-1.5.64.64,0,0,1,.63-.37c1-.1,2.39-.22,4.17-.34a28.86,28.86,0,0,0,5.44-.94,3,3,0,0,1,1.73-.08c.45.15.65.58.6,1.28l-.15,4.81c0,.1,0,.16.07.18s.13,0,.23-.11a15.08,15.08,0,0,1,3.87-5,9.33,9.33,0,0,1,6.11-1.88,6.07,6.07,0,0,1,4.66,1.62,5.57,5.57,0,0,1,1.5,3.94,3.36,3.36,0,0,1-1,2.33,3.59,3.59,0,0,1-2.77,1,3,3,0,0,1-2.41-.83,2.78,2.78,0,0,1-.67-1.8,2.84,2.84,0,0,0-.42-1.65c-.27-.4-.86-.6-1.76-.6a4,4,0,0,0-2.59.94,9.35,9.35,0,0,0-2,2.21,11.56,11.56,0,0,0-1.27,2.63,7.19,7.19,0,0,0-.45,2.1Z"/><path class="cls-1" d="M294.64,252.18c0,1.25,0,2.3.08,3.15a5,5,0,0,0,.52,2.11,3,3,0,0,0,1.47,1.27,10.19,10.19,0,0,0,2.81.68,1,1,0,0,1,.68.41,1.4,1.4,0,0,1,.22.79,1.24,1.24,0,0,1-.22.71.76.76,0,0,1-.68.34,33.75,33.75,0,0,1-3.72-.26,36.7,36.7,0,0,0-4.46-.27,39.31,39.31,0,0,0-4.66.27,37,37,0,0,1-4.13.26.68.68,0,0,1-.6-.34,1.24,1.24,0,0,1-.22-.71,1.4,1.4,0,0,1,.22-.79,1,1,0,0,1,.68-.41,10.49,10.49,0,0,0,2.89-.68,3,3,0,0,0,1.46-1.24,4.44,4.44,0,0,0,.53-2c.05-.77.07-1.74.07-2.89V241.52c0-2.35,0-4.23-.07-5.63a10.08,10.08,0,0,0-.53-3.23,2.63,2.63,0,0,0-1.38-1.53,7.81,7.81,0,0,0-2.74-.49.72.72,0,0,1-.61-.3,1.67,1.67,0,0,1-.3-.68,1,1,0,0,1,.12-.71.65.65,0,0,1,.63-.34q1.28-.15,3.72-.6t5.29-1.2a1.8,1.8,0,0,1,.6-.11c.3,0,.5,0,.6,0a1.64,1.64,0,0,1,1.28.6,1.84,1.84,0,0,1,.45,1.43l-.15,3.67c0,.26.1.28.3.08.25-.35.66-.88,1.24-1.58a13.22,13.22,0,0,1,2.25-2.1,14.52,14.52,0,0,1,3.38-1.84,12.38,12.38,0,0,1,4.54-.79,13,13,0,0,1,7.36,1.84,11.88,11.88,0,0,1,4.2,5.45,9.83,9.83,0,0,1,1.43-2.07,14.72,14.72,0,0,1,2.7-2.4,17.53,17.53,0,0,1,3.75-2,12.43,12.43,0,0,1,4.58-.83,13.59,13.59,0,0,1,5.86,1.09,8.91,8.91,0,0,1,3.53,3,11.28,11.28,0,0,1,1.72,4.46,32.83,32.83,0,0,1,.45,5.6v11.93c0,1.25,0,2.3.08,3.15a6,6,0,0,0,.45,2.11,2.68,2.68,0,0,0,1.2,1.27,7.32,7.32,0,0,0,2.4.68,1,1,0,0,1,.68.41,1.4,1.4,0,0,1,.22.79,1.24,1.24,0,0,1-.22.71.76.76,0,0,1-.68.34,28.82,28.82,0,0,1-3.07-.26,34.37,34.37,0,0,0-4.36-.27,38.26,38.26,0,0,0-4.62.27,34.87,34.87,0,0,1-3.94.26.68.68,0,0,1-.6-.34,1.24,1.24,0,0,1-.22-.71,1.4,1.4,0,0,1,.22-.79,1,1,0,0,1,.68-.41,9.27,9.27,0,0,0,2.74-.68,3.08,3.08,0,0,0,1.39-1.24,4.44,4.44,0,0,0,.52-2c.05-.77.08-1.74.08-2.89V243q0-2-.15-4.2a15.11,15.11,0,0,0-.79-4,7.28,7.28,0,0,0-1.92-3,5.18,5.18,0,0,0-3.6-1.16,8.27,8.27,0,0,0-3.94,1,11.45,11.45,0,0,0-3.19,2.48,12.3,12.3,0,0,0-2.14,3.27,8.24,8.24,0,0,0-.79,3.41v11.41c0,1.45,0,2.62.08,3.49a5.4,5.4,0,0,0,.45,2.07,2.26,2.26,0,0,0,1.2,1.09,10.94,10.94,0,0,0,2.4.56,1,1,0,0,1,.68.41,1.4,1.4,0,0,1,.22.79,1.24,1.24,0,0,1-.22.71.76.76,0,0,1-.68.34,29,29,0,0,1-3.08-.26,34.1,34.1,0,0,0-4.35-.27,38.26,38.26,0,0,0-4.62.27,33.43,33.43,0,0,1-3.71.26.68.68,0,0,1-.6-.34,1.25,1.25,0,0,1-.23-.71,1.41,1.41,0,0,1,.23-.79,1,1,0,0,1,.67-.41,13.58,13.58,0,0,0,2.59-.56,2.42,2.42,0,0,0,1.35-1.06,4.27,4.27,0,0,0,.49-1.91c.05-.8.08-1.88.08-3.23V243c0-1.35-.07-2.75-.19-4.2a15.08,15.08,0,0,0-.87-4,7.18,7.18,0,0,0-2-3,5.6,5.6,0,0,0-3.76-1.16,9.51,9.51,0,0,0-4.39.94,8.81,8.81,0,0,0-3,2.44,10.32,10.32,0,0,0-1.73,3.34,12.53,12.53,0,0,0-.56,3.64Z"/><path class="cls-1" d="M363.1,242.12c-.25,0-.39.09-.41.27a3.77,3.77,0,0,0,0,.63,21.75,21.75,0,0,0,.87,6.61,11.61,11.61,0,0,0,2.4,4.39,8.79,8.79,0,0,0,3.68,2.44,13.8,13.8,0,0,0,4.61.75,29.91,29.91,0,0,0,5-.41,8.68,8.68,0,0,0,4.12-1.84,1,1,0,0,1,.79-.23,1.16,1.16,0,0,1,.68.38,1.48,1.48,0,0,1,.34.67.82.82,0,0,1-.15.68,13,13,0,0,1-5.41,4.35,23.14,23.14,0,0,1-15.2-.15,14.22,14.22,0,0,1-5.4-3.79,15.44,15.44,0,0,1-3.16-5.7,24,24,0,0,1-1-7.1,19.66,19.66,0,0,1,1.24-7,16.83,16.83,0,0,1,3.49-5.7,17.08,17.08,0,0,1,5.33-3.83,16.06,16.06,0,0,1,6.83-1.43,14.75,14.75,0,0,1,5.74,1.09,12.79,12.79,0,0,1,4.39,3,13.91,13.91,0,0,1,2.82,4.58,16.2,16.2,0,0,1,1,5.75c0,1-.37,1.57-1.12,1.57Zm13.74-2.62q1.05,0,1.2-.75a10.12,10.12,0,0,0-.34-4.85,8.27,8.27,0,0,0-1.39-2.59,6.86,6.86,0,0,0-2.17-1.8,6.18,6.18,0,0,0-2.93-.67,7.51,7.51,0,0,0-6,2.59,8,8,0,0,0-1.54,2.74,17.62,17.62,0,0,0-.75,3.3,6.29,6.29,0,0,0-.11,1.46c0,.38.14.57.34.57Z"/></g></g></svg>