<svg id="レイヤー_1" data-name="レイヤー 1" xmlns="http://www.w3.org/2000/svg" viewBox="0 0 1340.1 184.6"><defs><style>.cls-1{fill:#474645;}</style></defs><title>icon</title><path class="cls-1" d="M114.9,443.29q0,9.12,1.7,12.78t6.65,3.66a14.09,14.09,0,0,0,4.7-.66,30.35,30.35,0,0,0,5.22-2.74,1.54,1.54,0,0,1,1.7,0,5,5,0,0,1,1.56,1.44,5.64,5.64,0,0,1,.91,2.09,2,2,0,0,1-.52,2q-10.17,12.27-24,12.26a20.73,20.73,0,0,1-12.91-4,25.68,25.68,0,0,1-8-9.52c-.35-.87-.88-1-1.56-.26a59.32,59.32,0,0,1-15.79,9.91q-9,3.91-22.57,3.91-14.87,0-23-8T21,443.56q0-18.78,17.48-28.83t50.87-10c.34,0,.6-.43.78-1.3a41.42,41.42,0,0,0,.26-6v-7a69,69,0,0,0-1-12.26,31.34,31.34,0,0,0-3.52-10,18,18,0,0,0-6.91-6.79,22.23,22.23,0,0,0-11-2.47q-9.64,0-15.65,3.78c-4,2.53-6,5.78-6,9.78A10,10,0,0,0,48.14,378,10,10,0,0,1,50,383.57q0,3.66-3.65,7.05A12.59,12.59,0,0,1,37.45,394q-7,0-10-3.78a14.44,14.44,0,0,1-3-9.26,23,23,0,0,1,3.65-12.39,32.93,32.93,0,0,1,9.92-10,53.7,53.7,0,0,1,14.6-6.65,61.14,61.14,0,0,1,17.48-2.48q20.86,0,32.87,9.66t12,32.09v52.13ZM90.38,417.46a13.58,13.58,0,0,0-.26-3.52c-.18-.43-.62-.65-1.31-.65q-21.39,1.83-31.69,9t-10.3,18.39a21.7,21.7,0,0,0,3.91,13.18q3.92,5.34,13.05,5.35a38.13,38.13,0,0,0,12.65-2.35,37.13,37.13,0,0,0,11.87-6.78,6,6,0,0,0,2.09-4.17V417.46Z" transform="translate(-21 -290)"/><path class="cls-1" d="M200,439.89q0,6.53.26,11a22.94,22.94,0,0,0,1.43,7.3,8.84,8.84,0,0,0,3.92,4.44,23.1,23.1,0,0,0,7.7,2.35,3.33,3.33,0,0,1,2.35,1.43,4.84,4.84,0,0,1,.78,2.74,4.38,4.38,0,0,1-.78,2.48,2.63,2.63,0,0,1-2.35,1.17,93.09,93.09,0,0,1-9.78-.91,118.59,118.59,0,0,0-15-.92,139.12,139.12,0,0,0-16.17.92,126.28,126.28,0,0,1-14.61.91,2.42,2.42,0,0,1-2.09-1.17,4.38,4.38,0,0,1-.78-2.48,4.84,4.84,0,0,1,.78-2.74,3.31,3.31,0,0,1,2.35-1.43,46.09,46.09,0,0,0,10-2.09,10.21,10.21,0,0,0,5.22-3.91,13.9,13.9,0,0,0,2-6.79c.17-2.78.26-6.35.26-10.69V408.59q0-12.79-.26-21.26a51,51,0,0,0-1.83-13.43c-1-3.3-2.69-5.61-4.95-6.91s-5.48-2-9.66-2a3.12,3.12,0,0,1-2.47-1,3.44,3.44,0,0,1-.92-2.35,3.79,3.79,0,0,1,.92-2.61,3.1,3.1,0,0,1,2.47-1,97.48,97.48,0,0,0,14.48-1.56A167.67,167.67,0,0,0,192.65,352c2.43-.69,4.27-.21,5.48,1.44A9.26,9.26,0,0,1,200,359v10.43a.61.61,0,0,0,.39.66q.39.14.66-.39a46.75,46.75,0,0,1,23.21-18.26A37.2,37.2,0,0,1,237,349.39q19.58,0,30.65,10.83t11.09,35.09v44.61q0,7.05.39,11.48a19,19,0,0,0,1.83,7.17,9.37,9.37,0,0,0,4.43,4.17,30,30,0,0,0,8.48,2.22,3.33,3.33,0,0,1,2.35,1.43,4.77,4.77,0,0,1,.79,2.74,4.32,4.32,0,0,1-.79,2.48,2.63,2.63,0,0,1-2.35,1.17,106.4,106.4,0,0,1-11.09-.91,134.66,134.66,0,0,0-31.43,0,107.93,107.93,0,0,1-12.52.91,2.42,2.42,0,0,1-2.09-1.17,4.38,4.38,0,0,1-.78-2.48,4.84,4.84,0,0,1,.78-2.74,3.31,3.31,0,0,1,2.35-1.43,27.43,27.43,0,0,0,8.74-2.35,10,10,0,0,0,4.43-4.31,17.13,17.13,0,0,0,1.7-6.78c.18-2.69.26-6,.26-10V401.82c0-4.35-.17-8.69-.52-13.05A35.15,35.15,0,0,0,250.83,377a22,22,0,0,0-6.79-8.61c-3-2.25-7-3.39-12.26-3.39a35.08,35.08,0,0,0-13.7,2.48,29.73,29.73,0,0,0-9.91,6.65A27.72,27.72,0,0,0,202,384,33.81,33.81,0,0,0,200,395.82v44.07Z" transform="translate(-21 -290)"/><path class="cls-1" d="M490.82,290.93a77.77,77.77,0,0,1,21.65,2.87A122.08,122.08,0,0,1,532,301.36c1.91.88,3.7,1.7,5.35,2.48a10.43,10.43,0,0,0,4.31,1.18q4.17,0,5.48-5a2.38,2.38,0,0,1,1.7-1.56,6.64,6.64,0,0,1,2.87-.39,6.94,6.94,0,0,1,2.48.65,1.28,1.28,0,0,1,.78,1.56,55.26,55.26,0,0,0-1.44,8.61q-.39,4.44-.39,9.13a102.55,102.55,0,0,0,1,14.61q1,7.31,2.09,15.13a1.93,1.93,0,0,1-1.18,1.7,6.92,6.92,0,0,1-2.87.78,8.11,8.11,0,0,1-3.26-.39,2.45,2.45,0,0,1-1.83-1.83Q540.64,324.59,526,313.5t-36.78-11.09q-17.22,0-28.44,7.31a54.76,54.76,0,0,0-17.87,18.91,80.62,80.62,0,0,0-9.26,25.57,147.31,147.31,0,0,0-2.61,27.26,138.91,138.91,0,0,0,3.13,29.22A85.8,85.8,0,0,0,444.37,437a58.86,58.86,0,0,0,18.39,19.18q11.34,7.43,27.52,7.44a103,103,0,0,0,22.43-2.22,36.74,36.74,0,0,0,16.7-8.22,56.81,56.81,0,0,0,13.31-18.13,88.29,88.29,0,0,0,7-23.87,2.65,2.65,0,0,1,1.7-2.35,5,5,0,0,1,3-.13,7.48,7.48,0,0,1,2.87,1.44c.87.7,1.22,1.39,1,2.09q-.78,5.22-1,10.3c-.17,3.39-.26,6.83-.26,10.3q0,8.88.65,18.13t1.18,19.43a2.77,2.77,0,0,1-1,2.35,4.87,4.87,0,0,1-2.48.92,5,5,0,0,1-2.73-.52,2.65,2.65,0,0,1-1.56-2,16,16,0,0,0-1.83-4.57,11.5,11.5,0,0,0-3.39-3.65,8.56,8.56,0,0,0-5-1.43,13,13,0,0,0-6,1.83,116.93,116.93,0,0,1-11.09,5.35A70.85,70.85,0,0,1,513,472.25a79.39,79.39,0,0,1-11.47,1.83c-4,.35-8.35.52-13,.52q-46.17,0-68.48-23.08t-22.3-66.14q0-23,7-40.57a84,84,0,0,1,19.44-29.61,81.21,81.21,0,0,1,29.47-18.13A109.22,109.22,0,0,1,490.82,290.93Z" transform="translate(-21 -290)"/><path class="cls-1" d="M627,368.15c.35.88.78.88,1.3,0a47.31,47.31,0,0,1,16.82-13.83,44.83,44.83,0,0,1,20-4.95q22.17,0,32,12.13t9.79,31.7v48.26q0,6.78.39,11a16.25,16.25,0,0,0,1.83,6.65,8.43,8.43,0,0,0,4.57,3.65,55.33,55.33,0,0,0,8.61,2.22,3.24,3.24,0,0,1,2.35,1.56,5,5,0,0,1,.78,2.61,4.38,4.38,0,0,1-.78,2.48,2.4,2.4,0,0,1-2.09,1.17,100.08,100.08,0,0,1-11.09-.91,124.72,124.72,0,0,0-15.26-.92,146.08,146.08,0,0,0-16.44.92,125.78,125.78,0,0,1-13.83.91,2.64,2.64,0,0,1-2.35-1.17,4.38,4.38,0,0,1-.78-2.48,4.84,4.84,0,0,1,.78-2.74,3.53,3.53,0,0,1,2.61-1.43,39.77,39.77,0,0,0,9.26-2.09,8.83,8.83,0,0,0,4.69-3.91,17.46,17.46,0,0,0,1.83-6.79c.26-2.78.39-6.35.39-10.69v-39.4a95.53,95.53,0,0,0-.91-13.05,42.46,42.46,0,0,0-3.4-11.87,22.08,22.08,0,0,0-7.17-8.74c-3.13-2.25-7.3-3.39-12.52-3.39a29.84,29.84,0,0,0-14.22,3.13,32.76,32.76,0,0,0-9.65,7.57,30.81,30.81,0,0,0-5.61,9.39A25.52,25.52,0,0,0,627,393.7v46.17q0,7,.26,11.61a18.77,18.77,0,0,0,1.56,7.17,9,9,0,0,0,4.05,4,25.48,25.48,0,0,0,7.7,2.22,3.42,3.42,0,0,1,2.61,1.56,5,5,0,0,1,.78,2.61,4.38,4.38,0,0,1-.78,2.48,2.63,2.63,0,0,1-2.35,1.17,92.43,92.43,0,0,1-10.56-.91,118.59,118.59,0,0,0-15-.92,132.41,132.41,0,0,0-15.91.92,114,114,0,0,1-13.57.91,2.64,2.64,0,0,1-2.35-1.17,4.38,4.38,0,0,1-.78-2.48,4.84,4.84,0,0,1,.78-2.74,3.53,3.53,0,0,1,2.61-1.43,39.89,39.89,0,0,0,9.26-2.09,9.5,9.5,0,0,0,4.82-3.91,16.13,16.13,0,0,0,2-6.79c.26-2.78.39-6.35.39-10.69V338.94q0-11.22-.52-17.87t-2.61-10.3a10.53,10.53,0,0,0-6.26-4.95,63.11,63.11,0,0,0-11.48-2.09,2.07,2.07,0,0,1-2-1.3,7.12,7.12,0,0,1-.78-2.61,4.65,4.65,0,0,1,.52-2.61,2.27,2.27,0,0,1,2.21-1.3q7.56-.53,18.52-1.56a108.63,108.63,0,0,0,20.61-3.91c2.43-.7,4-.56,4.82.39a6.51,6.51,0,0,1,1.44,3v74.32Z" transform="translate(-21 -290)"/><path class="cls-1" d="M845.35,443.29q0,9.12,1.7,12.78t6.65,3.66a14.09,14.09,0,0,0,4.7-.66,30.35,30.35,0,0,0,5.22-2.74,1.54,1.54,0,0,1,1.7,0,5,5,0,0,1,1.56,1.44,5.64,5.64,0,0,1,.91,2.09,2,2,0,0,1-.52,2q-10.17,12.27-24,12.26a20.73,20.73,0,0,1-12.91-4,25.68,25.68,0,0,1-8-9.52c-.35-.87-.88-1-1.56-.26a59.32,59.32,0,0,1-15.79,9.91q-9,3.91-22.57,3.91-14.87,0-23-8t-8.08-22.56q0-18.78,17.48-28.83t50.87-10c.34,0,.6-.43.78-1.3a41.42,41.42,0,0,0,.26-6v-7a69,69,0,0,0-1-12.26,31.34,31.34,0,0,0-3.52-10,18,18,0,0,0-6.91-6.79,22.23,22.23,0,0,0-11-2.47q-9.64,0-15.65,3.78c-4,2.53-6,5.78-6,9.78a10,10,0,0,0,1.83,5.61,10,10,0,0,1,1.83,5.61q0,3.66-3.65,7.05A12.59,12.59,0,0,1,767.9,394q-7,0-10-3.78a14.44,14.44,0,0,1-3-9.26,23,23,0,0,1,3.65-12.39,32.93,32.93,0,0,1,9.92-10,53.7,53.7,0,0,1,14.6-6.65,61.14,61.14,0,0,1,17.48-2.48q20.87,0,32.87,9.66t12,32.09v52.13Zm-24.52-25.83a13.58,13.58,0,0,0-.26-3.52c-.18-.43-.62-.65-1.31-.65q-21.39,1.83-31.69,9t-10.3,18.39a21.7,21.7,0,0,0,3.91,13.18q3.92,5.34,13.05,5.35a38.13,38.13,0,0,0,12.65-2.35,37.13,37.13,0,0,0,11.87-6.78,6,6,0,0,0,2.09-4.17V417.46Z" transform="translate(-21 -290)"/><path class="cls-1" d="M931.44,439.89q0,6.53.39,11a13,13,0,0,0,2.74,7.3,14.88,14.88,0,0,0,7.31,4.44,69.64,69.64,0,0,0,14.34,2.35,3.33,3.33,0,0,1,2.35,1.43,4.84,4.84,0,0,1,.78,2.74,4.38,4.38,0,0,1-.78,2.48,2.65,2.65,0,0,1-2.35,1.17,190.08,190.08,0,0,1-19.83-.91,155.68,155.68,0,0,0-16.44-.92,149.44,149.44,0,0,0-16.56.92,149.75,149.75,0,0,1-16.57.91,2.42,2.42,0,0,1-2.09-1.17,4.38,4.38,0,0,1-.78-2.48,4.84,4.84,0,0,1,.78-2.74,3.31,3.31,0,0,1,2.35-1.43,46.09,46.09,0,0,0,11.35-2.35,11.88,11.88,0,0,0,5.86-4.31,14.56,14.56,0,0,0,2.22-6.78q.39-4,.39-10V403.37q0-12.78-.53-20.21t-2.47-11.48a9.88,9.88,0,0,0-6.13-5.35,52.75,52.75,0,0,0-11.48-1.83,2.07,2.07,0,0,1-1.95-1.3,5.74,5.74,0,0,1-.66-2.61,5.61,5.61,0,0,1,.66-2.61,2.27,2.27,0,0,1,2.21-1.3q5.22-.53,14.48-1.18a98.64,98.64,0,0,0,18.91-3.26,10.35,10.35,0,0,1,6-.26c1.56.52,2.25,2,2.09,4.44l-.52,16.7c0,.35.09.56.26.65s.43,0,.78-.39A52.4,52.4,0,0,1,942,355.9q7.95-6.52,21.26-6.53,10.95,0,16.17,5.61a19.35,19.35,0,0,1,5.22,13.69,11.62,11.62,0,0,1-3.39,8.09q-3.39,3.64-9.66,3.65-6,0-8.34-2.87a9.71,9.71,0,0,1-2.35-6.27,10,10,0,0,0-1.44-5.74q-1.44-2.08-6.13-2.09a14,14,0,0,0-9,3.26,32.4,32.4,0,0,0-6.91,7.7,40.21,40.21,0,0,0-4.43,9.13,25.12,25.12,0,0,0-1.56,7.31v49.05Z" transform="translate(-21 -290)"/><path class="cls-1" d="M1044.92,439.89q0,6.53.26,11a17.09,17.09,0,0,0,1.83,7.3,10.24,10.24,0,0,0,5.09,4.44,35.86,35.86,0,0,0,9.78,2.35,3.33,3.33,0,0,1,2.35,1.43,4.84,4.84,0,0,1,.78,2.74,4.38,4.38,0,0,1-.78,2.48,2.63,2.63,0,0,1-2.35,1.17,112.38,112.38,0,0,1-12.91-.91,131.45,131.45,0,0,0-15.53-.92,139.25,139.25,0,0,0-16.17.92,124.29,124.29,0,0,1-14.35.91,2.42,2.42,0,0,1-2.09-1.17,4.38,4.38,0,0,1-.78-2.48,4.84,4.84,0,0,1,.78-2.74,3.31,3.31,0,0,1,2.35-1.43,36.1,36.1,0,0,0,10.05-2.35,10.45,10.45,0,0,0,5.08-4.31,15.73,15.73,0,0,0,1.83-6.78c.18-2.69.26-6,.26-10V402.85q0-12.25-.26-19.56t-1.83-11.22a9.19,9.19,0,0,0-4.82-5.34A27.55,27.55,0,0,0,1004,365a2.48,2.48,0,0,1-2.09-1,5.73,5.73,0,0,1-1-2.35,3.58,3.58,0,0,1,.39-2.48,2.32,2.32,0,0,1,2.21-1.17q4.44-.53,12.92-2.09c5.65-1,11.78-2.43,18.39-4.18a6.91,6.91,0,0,1,2.09-.39c1.05-.09,1.74-.13,2.09-.13a5.68,5.68,0,0,1,4.43,2.09,6.37,6.37,0,0,1,1.56,5L1044.4,371c0,.88.35,1,1,.26.87-1.21,2.3-3,4.31-5.48a45.8,45.8,0,0,1,7.82-7.3,49.71,49.71,0,0,1,11.74-6.39,42.51,42.51,0,0,1,15.78-2.74q16.19,0,25.57,6.39t14.61,18.92a32.73,32.73,0,0,1,5-7.17,49.82,49.82,0,0,1,9.39-8.35,62.19,62.19,0,0,1,13.05-6.91,43.23,43.23,0,0,1,15.91-2.87q12.53,0,20.35,3.78a30.53,30.53,0,0,1,12.26,10.3,39.22,39.22,0,0,1,6,15.52,113.94,113.94,0,0,1,1.56,19.44v41.48q0,6.52.26,11a20.49,20.49,0,0,0,1.57,7.3,9.25,9.25,0,0,0,4.17,4.44,25.47,25.47,0,0,0,8.34,2.35,3.33,3.33,0,0,1,2.35,1.43,4.84,4.84,0,0,1,.78,2.74,4.38,4.38,0,0,1-.78,2.48,2.63,2.63,0,0,1-2.35,1.17,96,96,0,0,1-10.69-.91,121.75,121.75,0,0,0-15.13-.92,135.91,135.91,0,0,0-16,.92,117.33,117.33,0,0,1-13.69.91,2.42,2.42,0,0,1-2.09-1.17,4.38,4.38,0,0,1-.78-2.48,4.84,4.84,0,0,1,.78-2.74,3.31,3.31,0,0,1,2.35-1.43,31.82,31.82,0,0,0,9.52-2.35,10.76,10.76,0,0,0,4.83-4.31,15.59,15.59,0,0,0,1.83-6.78c.18-2.69.26-6,.26-10V407.83q0-7.05-.52-14.61a52,52,0,0,0-2.74-13.83,25,25,0,0,0-6.65-10.3c-3-2.69-7.13-4-12.52-4a28.92,28.92,0,0,0-13.7,3.39A40.35,40.35,0,0,0,1137,377a43.28,43.28,0,0,0-7.44,11.35,28.94,28.94,0,0,0-2.73,11.87v39.65q0,7.57.26,12.14a18.58,18.58,0,0,0,1.56,7.17,7.75,7.75,0,0,0,4.17,3.78,36.9,36.9,0,0,0,8.35,2,3.33,3.33,0,0,1,2.35,1.43,4.84,4.84,0,0,1,.78,2.74,4.38,4.38,0,0,1-.78,2.48,2.63,2.63,0,0,1-2.35,1.17,95.9,95.9,0,0,1-10.7-.91,121.75,121.75,0,0,0-15.13-.92,135.62,135.62,0,0,0-16,.92,112.68,112.68,0,0,1-12.92.91,2.42,2.42,0,0,1-2.09-1.17,4.38,4.38,0,0,1-.78-2.48,4.84,4.84,0,0,1,.78-2.74,3.31,3.31,0,0,1,2.35-1.43,46.1,46.1,0,0,0,9-2,8.46,8.46,0,0,0,4.7-3.65,15.18,15.18,0,0,0,1.69-6.65q.26-4.17.26-11.21V407.84q0-7.05-.65-14.61a52.38,52.38,0,0,0-3-13.83,24.73,24.73,0,0,0-7-10.3c-3.14-2.69-7.48-4.05-13-4.05a33.31,33.31,0,0,0-15.27,3.26,30.38,30.38,0,0,0-10.43,8.48,36,36,0,0,0-6,11.61,42.93,42.93,0,0,0-2,12.65v38.84Z" transform="translate(-21 -290)"/><path class="cls-1" d="M1282.83,404.93c-.87,0-1.35.31-1.43.92a15.6,15.6,0,0,0-.13,2.22q0,13.56,3,22.95a40.81,40.81,0,0,0,8.34,15.26,30.72,30.72,0,0,0,12.78,8.48,47.82,47.82,0,0,0,16,2.61,101.31,101.31,0,0,0,17.22-1.43,30.14,30.14,0,0,0,14.34-6.39,3.27,3.27,0,0,1,2.74-.78,4,4,0,0,1,2.35,1.3,5.09,5.09,0,0,1,1.18,2.35,2.84,2.84,0,0,1-.52,2.35q-8.36,11-18.78,15.13t-25.83,4.17q-15.66,0-27-4.69a49.88,49.88,0,0,1-18.78-13.17,54,54,0,0,1-11-19.83,82.78,82.78,0,0,1-3.52-24.65,68.6,68.6,0,0,1,4.3-24.27,58.72,58.72,0,0,1,12.14-19.83,59.49,59.49,0,0,1,18.52-13.31,55.83,55.83,0,0,1,23.74-4.95,51.11,51.11,0,0,1,20,3.78,44.12,44.12,0,0,1,15.26,10.43,47.61,47.61,0,0,1,9.78,15.91,55.67,55.67,0,0,1,3.52,20q0,5.48-3.91,5.48Zm47.75-9.12q3.64,0,4.17-2.61a32.25,32.25,0,0,0,.52-6.27,33.17,33.17,0,0,0-1.69-10.56,29.06,29.06,0,0,0-4.83-9,24,24,0,0,0-7.57-6.26,21.49,21.49,0,0,0-10.17-2.35,27.49,27.49,0,0,0-12.13,2.47,26.76,26.76,0,0,0-8.61,6.53,27.58,27.58,0,0,0-5.35,9.52,61,61,0,0,0-2.61,11.47,22.66,22.66,0,0,0-.39,5.09c.09,1.3.47,2,1.17,2h47.49Z" transform="translate(-21 -290)"/></svg>