<?xml version="1.0" encoding="utf-8"?>
<!-- Generator: Adobe Illustrator 23.0.4, SVG Export Plug-In . SVG Version: 6.00 Build 0)  -->
<svg version="1.1" id="レイヤー_1" xmlns="http://www.w3.org/2000/svg" xmlns:xlink="http://www.w3.org/1999/xlink" x="0px"
	 y="0px" viewBox="0 0 1920 1080" style="enable-background:new 0 0 1920 1080;" xml:space="preserve">
<style type="text/css">
	.st0{fill:#474645;}
</style>
<g id="XMLID_207_">
	<path id="XMLID_224_" class="st0" d="M384.8,600.65c0,6.08,0.56,10.34,1.7,12.78c1.12,2.44,3.34,3.66,6.65,3.66
		c1.91,0,3.48-0.22,4.7-0.66c1.21-0.43,2.96-1.34,5.22-2.74c0.52-0.34,1.08-0.34,1.7,0c0.6,0.35,1.13,0.83,1.56,1.44
		c0.43,0.61,0.74,1.3,0.91,2.09c0.17,0.78,0,1.44-0.52,1.96c-6.78,8.18-14.78,12.26-24,12.26c-5.05,0-9.35-1.34-12.91-4.04
		c-3.57-2.69-6.23-5.87-7.96-9.52c-0.35-0.87-0.88-0.96-1.56-0.26c-4.53,4-9.78,7.3-15.79,9.91c-6,2.61-13.53,3.91-22.57,3.91
		c-9.91,0-17.57-2.65-22.95-7.96c-5.4-5.3-8.08-12.82-8.08-22.56c0-12.52,5.82-22.13,17.48-28.83
		c11.65-6.69,28.61-10.04,50.87-10.04c0.34,0,0.6-0.43,0.78-1.3c0.17-0.87,0.26-2.87,0.26-6v-7.04c0-4.35-0.35-8.44-1.04-12.26
		c-0.7-3.82-1.87-7.17-3.52-10.04c-1.66-2.87-3.96-5.13-6.91-6.79c-2.96-1.65-6.61-2.47-10.96-2.47c-6.43,0-11.65,1.26-15.65,3.78
		c-4,2.53-6,5.78-6,9.78c0,1.92,0.61,3.78,1.83,5.61s1.83,3.7,1.83,5.61c0,2.44-1.22,4.79-3.65,7.05c-2.44,2.26-5.4,3.39-8.87,3.39
		c-4.69,0-8.04-1.26-10.04-3.78c-2-2.52-3-5.61-3-9.26c0-4.35,1.21-8.48,3.65-12.39c2.43-3.91,5.74-7.26,9.92-10.04
		c4.17-2.78,9.04-5,14.6-6.65s11.39-2.48,17.48-2.48c13.91,0,24.87,3.22,32.87,9.66s12,17.13,12,32.09V600.65z M360.28,574.82
		c0-1.91-0.09-3.08-0.26-3.52c-0.18-0.43-0.62-0.65-1.31-0.65c-14.26,1.22-24.83,4.22-31.69,9c-6.87,4.79-10.3,10.91-10.3,18.39
		c0,5.22,1.3,9.62,3.91,13.18c2.61,3.56,6.95,5.35,13.05,5.35c4,0,8.22-0.79,12.65-2.35c4.44-1.56,8.39-3.82,11.87-6.78
		c1.39-1.39,2.09-2.78,2.09-4.17V574.82z"/>
	<path id="XMLID_222_" class="st0" d="M469.85,597.25c0,4.35,0.09,8,0.26,10.96c0.17,2.96,0.65,5.4,1.43,7.3
		c0.79,1.92,2.09,3.4,3.92,4.44c1.83,1.04,4.39,1.83,7.7,2.35c1.04,0.17,1.83,0.65,2.35,1.43c0.52,0.78,0.78,1.7,0.78,2.74
		c0,0.88-0.26,1.7-0.78,2.48c-0.52,0.78-1.3,1.17-2.35,1.17c-1.75,0-5-0.3-9.78-0.91c-4.79-0.61-9.78-0.92-15-0.92
		c-5.57,0-10.95,0.31-16.17,0.92c-5.22,0.61-10.09,0.91-14.61,0.91c-0.87,0-1.56-0.39-2.09-1.17c-0.52-0.78-0.78-1.6-0.78-2.48
		c0-1.04,0.26-1.96,0.78-2.74c0.52-0.78,1.3-1.26,2.35-1.43c4.35-0.52,7.7-1.22,10.05-2.09c2.35-0.87,4.08-2.17,5.22-3.91
		c1.13-1.74,1.78-4.01,1.95-6.79c0.17-2.78,0.26-6.35,0.26-10.69v-32.87c0-8.53-0.09-15.61-0.26-21.26
		c-0.17-5.65-0.78-10.13-1.83-13.43c-1.04-3.3-2.69-5.61-4.95-6.91c-2.26-1.3-5.48-1.96-9.66-1.96c-1.04,0-1.87-0.35-2.47-1.04
		c-0.62-0.7-0.92-1.48-0.92-2.35c0-1.04,0.3-1.91,0.92-2.61c0.61-0.7,1.43-1.04,2.47-1.04c3.3,0,8.13-0.52,14.48-1.56
		c6.35-1.05,12.82-2.52,19.43-4.44c2.43-0.69,4.27-0.21,5.48,1.44c1.21,1.65,1.83,3.52,1.83,5.61v10.43c0,0.35,0.13,0.57,0.39,0.66
		s0.48-0.04,0.66-0.39c1.22-1.91,2.91-4.04,5.09-6.39c2.17-2.35,4.78-4.56,7.82-6.65c3.04-2.09,6.48-3.82,10.3-5.22
		c3.82-1.39,8.09-2.09,12.78-2.09c13.05,0,23.26,3.61,30.65,10.83c7.4,7.22,11.09,18.92,11.09,35.09v44.61
		c0,4.7,0.13,8.53,0.39,11.48c0.26,2.96,0.87,5.35,1.83,7.17c0.96,1.83,2.43,3.22,4.43,4.17c2,0.96,4.83,1.7,8.48,2.22
		c1.04,0.17,1.83,0.65,2.35,1.43c0.53,0.78,0.79,1.7,0.79,2.74c0,0.88-0.26,1.7-0.79,2.48c-0.52,0.78-1.3,1.17-2.35,1.17
		c-2.26,0-5.96-0.3-11.09-0.91c-5.13-0.61-10.3-0.92-15.52-0.92c-5.57,0-10.87,0.31-15.91,0.92c-5.05,0.61-9.22,0.91-12.52,0.91
		c-0.87,0-1.56-0.39-2.09-1.17c-0.52-0.78-0.78-1.6-0.78-2.48c0-1.04,0.26-1.96,0.78-2.74c0.52-0.78,1.3-1.26,2.35-1.43
		c3.82-0.52,6.74-1.3,8.74-2.35c2-1.04,3.48-2.48,4.43-4.31s1.52-4.09,1.7-6.78s0.26-6.04,0.26-10.04v-39.66
		c0-4.35-0.17-8.69-0.52-13.05c-0.35-4.34-1.3-8.26-2.87-11.73c-1.56-3.48-3.83-6.35-6.79-8.61c-2.96-2.25-7.04-3.39-12.26-3.39
		c-5.22,0-9.78,0.83-13.7,2.48c-3.91,1.65-7.21,3.87-9.91,6.65c-2.7,2.78-4.74,6.04-6.13,9.78c-1.39,3.74-2.09,7.7-2.09,11.87
		V597.25z"/>
	<path id="XMLID_220_" class="st0" d="M760.72,448.29c7.82,0,15.04,0.96,21.65,2.87c6.61,1.91,13.13,4.43,19.56,7.56
		c1.91,0.88,3.7,1.7,5.35,2.48c1.65,0.78,3.09,1.18,4.31,1.18c2.78,0,4.61-1.65,5.48-4.96c0.17-0.69,0.74-1.21,1.7-1.56
		c0.96-0.35,1.91-0.47,2.87-0.39c0.96,0.09,1.78,0.3,2.48,0.65c0.69,0.35,0.95,0.88,0.78,1.56c-0.7,2.79-1.18,5.66-1.44,8.61
		c-0.26,2.96-0.39,6-0.39,9.13c0,4.87,0.34,9.74,1.04,14.61c0.69,4.87,1.39,9.92,2.09,15.13c0,0.7-0.39,1.26-1.18,1.7
		c-0.78,0.43-1.74,0.7-2.87,0.78c-1.13,0.09-2.22-0.04-3.26-0.39c-1.04-0.35-1.65-0.95-1.83-1.83
		c-4.35-15.65-11.39-27.17-21.13-34.56c-9.74-7.4-22.01-11.09-36.78-11.09c-11.48,0-20.96,2.44-28.44,7.31
		c-7.48,4.87-13.43,11.17-17.87,18.91c-4.44,7.74-7.53,16.27-9.26,25.57c-1.75,9.31-2.61,18.39-2.61,27.26
		c0,9.74,1.04,19.48,3.13,29.22c2.09,9.74,5.48,18.52,10.17,26.34c4.7,7.83,10.83,14.22,18.39,19.18
		c7.56,4.95,16.74,7.44,27.52,7.44c8.34,0,15.83-0.74,22.43-2.22c6.61-1.48,12.18-4.21,16.7-8.22c5.56-5.04,10-11.09,13.31-18.13
		c3.3-7.05,5.65-15,7.04-23.87c0.17-1.22,0.74-2,1.7-2.35s1.96-0.39,3-0.13c1.04,0.26,1.99,0.74,2.87,1.44
		c0.87,0.7,1.22,1.39,1.04,2.09c-0.52,3.48-0.87,6.91-1.04,10.3s-0.26,6.83-0.26,10.3c0,5.92,0.21,11.96,0.65,18.13
		s0.83,12.65,1.18,19.43c0,1.04-0.35,1.83-1.04,2.35s-1.52,0.82-2.48,0.92c-0.96,0.09-1.87-0.09-2.73-0.52
		c-0.88-0.43-1.4-1.09-1.56-1.96c-0.35-1.56-0.96-3.08-1.83-4.57c-0.87-1.47-2-2.69-3.39-3.65c-1.39-0.95-3.04-1.43-4.95-1.43
		c-1.74,0-3.74,0.61-6,1.83c-3.83,2.09-7.53,3.87-11.09,5.35c-3.56,1.48-7.17,2.65-10.83,3.52c-3.65,0.87-7.48,1.48-11.47,1.83
		c-4.01,0.35-8.35,0.52-13.05,0.52c-30.78,0-53.61-7.7-68.48-23.08c-14.86-15.39-22.3-37.44-22.3-66.14
		c0-15.3,2.35-28.83,7.04-40.57c4.69-11.73,11.17-21.6,19.44-29.61c8.26-8,18.08-14.04,29.47-18.13S747.33,448.29,760.72,448.29z"/>
	<path id="XMLID_218_" class="st0" d="M896.9,525.51c0.35,0.88,0.78,0.88,1.3,0c4.52-5.91,10.13-10.52,16.82-13.83
		c6.69-3.3,13.35-4.95,19.96-4.95c14.78,0,25.44,4.05,31.96,12.13c6.53,8.09,9.79,18.66,9.79,31.7v48.26
		c0,4.52,0.13,8.17,0.39,10.95c0.26,2.79,0.87,5,1.83,6.65c0.96,1.66,2.48,2.87,4.57,3.65c2.09,0.78,4.95,1.52,8.61,2.22
		c1.04,0.17,1.83,0.7,2.35,1.56s0.78,1.74,0.78,2.61c0,0.88-0.26,1.7-0.78,2.48c-0.52,0.78-1.22,1.17-2.09,1.17
		c-2.43,0-6.12-0.3-11.09-0.91c-4.95-0.61-10.04-0.92-15.26-0.92c-5.57,0-11.05,0.31-16.44,0.92c-5.4,0.61-10,0.91-13.83,0.91
		c-1.04,0-1.83-0.39-2.35-1.17c-0.52-0.78-0.78-1.6-0.78-2.48c0-1.04,0.26-1.96,0.78-2.74c0.52-0.78,1.39-1.26,2.61-1.43
		c4-0.52,7.09-1.22,9.26-2.09c2.17-0.87,3.74-2.17,4.69-3.91c0.96-1.74,1.57-4.01,1.83-6.79c0.26-2.78,0.39-6.35,0.39-10.69v-39.4
		c0-4.35-0.31-8.69-0.91-13.05c-0.62-4.34-1.75-8.3-3.4-11.87c-1.65-3.56-4.04-6.47-7.17-8.74c-3.13-2.25-7.3-3.39-12.52-3.39
		c-5.57,0-10.3,1.04-14.22,3.13c-3.91,2.09-7.13,4.61-9.65,7.57c-2.53,2.96-4.39,6.08-5.61,9.39c-1.22,3.31-1.83,6.18-1.83,8.61
		v46.17c0,4.7,0.09,8.57,0.26,11.61c0.17,3.04,0.7,5.44,1.56,7.17c0.87,1.74,2.22,3.09,4.05,4.04c1.83,0.96,4.39,1.7,7.7,2.22
		c1.21,0.17,2.09,0.7,2.61,1.56s0.78,1.74,0.78,2.61c0,0.88-0.26,1.7-0.78,2.48c-0.52,0.78-1.3,1.17-2.35,1.17
		c-2.27,0-5.78-0.3-10.56-0.91c-4.79-0.61-9.78-0.92-15-0.92c-5.57,0-10.87,0.31-15.91,0.92c-5.04,0.61-9.56,0.91-13.57,0.91
		c-1.04,0-1.83-0.39-2.35-1.17c-0.52-0.78-0.78-1.6-0.78-2.48c0-1.04,0.26-1.96,0.78-2.74c0.52-0.78,1.39-1.26,2.61-1.43
		c4-0.52,7.08-1.22,9.26-2.09c2.17-0.87,3.78-2.17,4.82-3.91c1.04-1.74,1.7-4.01,1.96-6.79c0.26-2.78,0.39-6.35,0.39-10.69V496.3
		c0-7.48-0.17-13.44-0.52-17.87c-0.35-4.43-1.22-7.87-2.61-10.3s-3.48-4.09-6.26-4.95c-2.78-0.87-6.61-1.56-11.48-2.09
		c-0.87,0-1.52-0.43-1.95-1.3c-0.44-0.86-0.7-1.73-0.78-2.61c-0.09-0.87,0.08-1.73,0.52-2.61c0.43-0.87,1.17-1.3,2.21-1.3
		c5.04-0.35,11.22-0.87,18.52-1.56c7.31-0.7,14.18-2,20.61-3.91c2.43-0.7,4.04-0.56,4.82,0.39c0.78,0.96,1.26,1.96,1.44,3V525.51z"
		/>
	<path id="XMLID_215_" class="st0" d="M1115.25,600.65c0,6.08,0.56,10.34,1.7,12.78c1.12,2.44,3.34,3.66,6.65,3.66
		c1.91,0,3.48-0.22,4.7-0.66c1.21-0.43,2.96-1.34,5.22-2.74c0.52-0.34,1.08-0.34,1.7,0c0.6,0.35,1.13,0.83,1.56,1.44
		c0.43,0.61,0.74,1.3,0.91,2.09c0.17,0.78,0,1.44-0.52,1.96c-6.78,8.18-14.78,12.26-24,12.26c-5.05,0-9.35-1.34-12.91-4.04
		c-3.57-2.69-6.23-5.87-7.96-9.52c-0.35-0.87-0.88-0.96-1.56-0.26c-4.53,4-9.78,7.3-15.79,9.91c-6,2.61-13.53,3.91-22.57,3.91
		c-9.91,0-17.57-2.65-22.95-7.96c-5.4-5.3-8.08-12.82-8.08-22.56c0-12.52,5.82-22.13,17.48-28.83c11.65-6.69,28.6-10.04,50.87-10.04
		c0.34,0,0.6-0.43,0.78-1.3c0.17-0.87,0.26-2.87,0.26-6v-7.04c0-4.35-0.35-8.44-1.04-12.26c-0.7-3.82-1.87-7.17-3.52-10.04
		c-1.66-2.87-3.96-5.13-6.91-6.79c-2.96-1.65-6.61-2.47-10.96-2.47c-6.43,0-11.65,1.26-15.65,3.78c-4,2.53-6,5.78-6,9.78
		c0,1.92,0.61,3.78,1.83,5.61s1.83,3.7,1.83,5.61c0,2.44-1.22,4.79-3.65,7.05c-2.44,2.26-5.4,3.39-8.87,3.39
		c-4.69,0-8.04-1.26-10.04-3.78s-3-5.61-3-9.26c0-4.35,1.21-8.48,3.65-12.39c2.43-3.91,5.74-7.26,9.92-10.04
		c4.17-2.78,9.04-5,14.6-6.65c5.56-1.65,11.39-2.48,17.48-2.48c13.91,0,24.87,3.22,32.87,9.66s12,17.13,12,32.09V600.65z
		 M1090.73,574.82c0-1.91-0.09-3.08-0.26-3.52c-0.18-0.43-0.62-0.65-1.31-0.65c-14.26,1.22-24.83,4.22-31.69,9
		c-6.87,4.79-10.3,10.91-10.3,18.39c0,5.22,1.3,9.62,3.91,13.18c2.61,3.56,6.95,5.35,13.05,5.35c4,0,8.22-0.79,12.65-2.35
		c4.44-1.56,8.39-3.82,11.87-6.78c1.39-1.39,2.09-2.78,2.09-4.17V574.82z"/>
	<path id="XMLID_213_" class="st0" d="M1201.34,597.25c0,4.35,0.13,8,0.39,10.96c0.26,2.96,1.18,5.4,2.74,7.3
		c1.56,1.92,4,3.4,7.31,4.44c3.3,1.04,8.08,1.83,14.34,2.35c1.04,0.17,1.83,0.65,2.35,1.43c0.52,0.78,0.78,1.7,0.78,2.74
		c0,0.88-0.26,1.7-0.78,2.48c-0.53,0.78-1.31,1.17-2.35,1.17c-7.48,0-14.08-0.3-19.83-0.91c-5.74-0.61-11.21-0.92-16.44-0.92
		c-5.56,0-11.09,0.31-16.56,0.92c-5.48,0.61-11.01,0.91-16.57,0.91c-0.87,0-1.56-0.39-2.09-1.17c-0.52-0.78-0.78-1.6-0.78-2.48
		c0-1.04,0.26-1.96,0.78-2.74c0.52-0.78,1.3-1.26,2.35-1.43c4.87-0.52,8.65-1.3,11.35-2.35c2.69-1.04,4.65-2.48,5.86-4.31
		c1.22-1.83,1.96-4.09,2.22-6.78c0.26-2.69,0.39-6.04,0.39-10.04v-38.09c0-8.52-0.18-15.26-0.53-20.21
		c-0.35-4.96-1.17-8.78-2.47-11.48c-1.3-2.69-3.35-4.47-6.13-5.35c-2.78-0.87-6.61-1.48-11.48-1.83c-0.87,0-1.52-0.43-1.95-1.3
		c-0.44-0.87-0.66-1.74-0.66-2.61c0-0.87,0.21-1.74,0.66-2.61c0.43-0.87,1.17-1.3,2.21-1.3c3.48-0.35,8.3-0.74,14.48-1.18
		c6.17-0.43,12.48-1.52,18.91-3.26c2.43-0.69,4.44-0.78,6-0.26c1.56,0.52,2.25,2.01,2.09,4.44l-0.52,16.7
		c0,0.35,0.09,0.56,0.26,0.65c0.17,0.09,0.43-0.04,0.78-0.39c3.65-7.31,8.12-13.13,13.43-17.48c5.3-4.35,12.39-6.53,21.26-6.53
		c7.3,0,12.69,1.87,16.17,5.61c3.48,3.74,5.22,8.3,5.22,13.69c0,2.96-1.13,5.66-3.39,8.09s-5.48,3.65-9.66,3.65
		c-4,0-6.78-0.96-8.34-2.87c-1.56-1.91-2.35-4-2.35-6.27c0-2.43-0.48-4.34-1.44-5.74c-0.96-1.39-3-2.09-6.13-2.09
		c-3.3,0-6.31,1.09-9,3.26c-2.69,2.17-5,4.74-6.91,7.7c-1.91,2.96-3.39,6-4.43,9.13c-1.04,3.13-1.56,5.57-1.56,7.31V597.25z"/>
	<path id="XMLID_211_" class="st0" d="M1314.82,597.25c0,4.35,0.09,8,0.26,10.96c0.17,2.96,0.78,5.4,1.83,7.3
		c1.04,1.92,2.74,3.4,5.09,4.44c2.35,1.04,5.61,1.83,9.78,2.35c1.04,0.17,1.83,0.65,2.35,1.43c0.52,0.78,0.78,1.7,0.78,2.74
		c0,0.88-0.26,1.7-0.78,2.48c-0.52,0.78-1.3,1.17-2.35,1.17c-3.48,0-7.78-0.3-12.91-0.91c-5.14-0.61-10.3-0.92-15.53-0.92
		c-5.56,0-10.95,0.31-16.17,0.92c-5.22,0.61-10,0.91-14.35,0.91c-0.87,0-1.56-0.39-2.09-1.17c-0.52-0.78-0.78-1.6-0.78-2.48
		c0-1.04,0.26-1.96,0.78-2.74c0.52-0.78,1.3-1.26,2.35-1.43c4.35-0.52,7.7-1.3,10.05-2.35c2.35-1.04,4.04-2.48,5.08-4.31
		s1.65-4.09,1.83-6.78s0.26-6.04,0.26-10.04v-38.61c0-8.17-0.09-14.69-0.26-19.56c-0.17-4.87-0.78-8.61-1.83-11.22
		c-1.04-2.61-2.65-4.39-4.82-5.34c-2.18-0.96-5.35-1.52-9.52-1.7c-0.88,0-1.57-0.35-2.09-1.04c-0.52-0.7-0.87-1.48-1.04-2.35
		c-0.17-0.87-0.04-1.7,0.39-2.48c0.43-0.78,1.17-1.17,2.21-1.17c2.96-0.35,7.26-1.04,12.92-2.09c5.65-1.05,11.78-2.43,18.39-4.18
		c0.35-0.17,1.04-0.3,2.09-0.39s1.74-0.13,2.09-0.13c1.73,0,3.22,0.7,4.43,2.09c1.21,1.4,1.74,3.05,1.56,4.96l-0.52,12.78
		c0,0.88,0.35,0.96,1.04,0.26c0.87-1.21,2.3-3.04,4.31-5.48c1.99-2.43,4.61-4.87,7.82-7.3c3.22-2.43,7.13-4.57,11.74-6.39
		c4.61-1.83,9.87-2.74,15.78-2.74c10.79,0,19.3,2.13,25.57,6.39c6.26,4.27,11.13,10.56,14.61,18.92c0.86-1.91,2.51-4.31,4.95-7.17
		c2.43-2.87,5.56-5.65,9.39-8.35c3.82-2.69,8.18-4.99,13.05-6.91c4.87-1.91,10.18-2.87,15.91-2.87c8.35,0,15.13,1.26,20.35,3.78
		c5.22,2.52,9.3,5.96,12.26,10.3c2.96,4.35,4.95,9.52,6,15.52c1.04,6,1.56,12.48,1.56,19.44v41.48c0,4.35,0.09,8,0.26,10.96
		c0.17,2.96,0.7,5.4,1.57,7.3c0.86,1.92,2.25,3.4,4.17,4.44c1.91,1.04,4.69,1.83,8.34,2.35c1.04,0.17,1.83,0.65,2.35,1.43
		c0.52,0.78,0.78,1.7,0.78,2.74c0,0.88-0.26,1.7-0.78,2.48c-0.52,0.78-1.3,1.17-2.35,1.17c-2.26,0-5.82-0.3-10.69-0.91
		c-4.87-0.61-9.92-0.92-15.13-0.92c-5.57,0-10.92,0.31-16.05,0.92c-5.13,0.61-9.7,0.91-13.69,0.91c-0.87,0-1.56-0.39-2.09-1.17
		c-0.52-0.78-0.78-1.6-0.78-2.48c0-1.04,0.26-1.96,0.78-2.74c0.52-0.78,1.3-1.26,2.35-1.43c4.17-0.52,7.35-1.3,9.52-2.35
		s3.78-2.48,4.83-4.31s1.65-4.09,1.83-6.78s0.26-6.04,0.26-10.04v-33.65c0-4.7-0.17-9.57-0.52-14.61
		c-0.35-5.04-1.26-9.66-2.74-13.83c-1.48-4.17-3.7-7.61-6.65-10.3c-2.96-2.69-7.13-4.05-12.52-4.05c-4.87,0-9.44,1.14-13.7,3.39
		c-4.26,2.27-7.96,5.14-11.09,8.61s-5.61,7.26-7.44,11.35c-1.83,4.09-2.73,8.04-2.73,11.87v39.65c0,5.05,0.08,9.09,0.26,12.14
		c0.17,3.04,0.69,5.44,1.56,7.17c0.87,1.74,2.26,3,4.17,3.78c1.91,0.78,4.69,1.44,8.35,1.96c1.04,0.17,1.83,0.65,2.35,1.43
		c0.52,0.78,0.78,1.7,0.78,2.74c0,0.88-0.26,1.7-0.78,2.48c-0.52,0.78-1.3,1.17-2.35,1.17c-2.27,0-5.83-0.3-10.7-0.91
		c-4.87-0.61-9.92-0.92-15.13-0.92c-5.57,0-10.92,0.31-16.04,0.92c-5.14,0.61-9.44,0.91-12.92,0.91c-0.87,0-1.56-0.39-2.09-1.17
		c-0.52-0.78-0.78-1.6-0.78-2.48c0-1.04,0.26-1.96,0.78-2.74c0.52-0.78,1.3-1.26,2.35-1.43c3.82-0.52,6.83-1.18,9-1.96
		c2.17-0.78,3.74-1.99,4.7-3.65c0.95-1.65,1.52-3.86,1.69-6.65c0.17-2.78,0.26-6.52,0.26-11.21v-33.65c0-4.7-0.22-9.57-0.65-14.61
		c-0.44-5.04-1.44-9.66-3-13.83c-1.56-4.17-3.91-7.61-7.04-10.3c-3.14-2.69-7.48-4.05-13.05-4.05c-5.92,0-11,1.09-15.27,3.26
		c-4.26,2.17-7.74,5-10.43,8.48c-2.7,3.48-4.69,7.35-6,11.61c-1.31,4.27-1.96,8.48-1.96,12.65V597.25z"/>
	<path id="XMLID_208_" class="st0" d="M1552.73,562.29c-0.87,0-1.35,0.31-1.43,0.92c-0.09,0.61-0.13,1.35-0.13,2.22
		c0,9.04,1,16.7,3,22.95s4.78,11.35,8.34,15.26c3.56,3.92,7.83,6.75,12.78,8.48c4.95,1.75,10.3,2.61,16.05,2.61
		c5.9,0,11.65-0.47,17.22-1.43c5.56-0.96,10.34-3.09,14.34-6.39c0.87-0.7,1.79-0.96,2.74-0.78c0.96,0.17,1.74,0.61,2.35,1.3
		c0.61,0.7,1,1.48,1.18,2.35c0.17,0.88,0,1.66-0.52,2.35c-5.57,7.31-11.83,12.35-18.78,15.13c-6.96,2.78-15.57,4.17-25.83,4.17
		c-10.44,0-19.44-1.56-27-4.69c-7.56-3.13-13.83-7.52-18.78-13.17c-4.95-5.65-8.61-12.26-10.96-19.83
		c-2.35-7.57-3.52-15.79-3.52-24.65c0-8.52,1.43-16.61,4.3-24.27c2.87-7.65,6.91-14.26,12.14-19.83c5.22-5.56,11.39-10,18.52-13.31
		c7.13-3.3,15.04-4.95,23.74-4.95c7.3,0,13.95,1.26,19.96,3.78c6,2.52,11.09,6,15.26,10.43c4.17,4.44,7.44,9.74,9.78,15.91
		c2.35,6.18,3.52,12.83,3.52,19.96c0,3.65-1.3,5.48-3.91,5.48H1552.73z M1600.48,553.17c2.43,0,3.82-0.87,4.17-2.61
		c0.35-1.74,0.52-3.82,0.52-6.27c0-3.65-0.56-7.17-1.69-10.56c-1.14-3.39-2.74-6.39-4.83-9c-2.09-2.61-4.61-4.69-7.57-6.26
		c-2.96-1.56-6.35-2.35-10.17-2.35c-4.69,0-8.74,0.82-12.13,2.47c-3.4,1.66-6.27,3.83-8.61,6.53c-2.35,2.69-4.13,5.87-5.35,9.52
		c-1.22,3.65-2.09,7.48-2.61,11.47c-0.35,2.09-0.48,3.78-0.39,5.09c0.09,1.3,0.47,1.96,1.17,1.96H1600.48z"/>
</g>
</svg>
