<?xml version="1.0" encoding="iso-8859-1"?>
<!-- Generator: Adobe Illustrator 18.0.0, SVG Export Plug-In . SVG Version: 6.00 Build 0)  -->
<!DOCTYPE svg PUBLIC "-//W3C//DTD SVG 1.1//EN" "http://www.w3.org/Graphics/SVG/1.1/DTD/svg11.dtd">
<svg version="1.1" id="Capa_1" xmlns="http://www.w3.org/2000/svg" xmlns:xlink="http://www.w3.org/1999/xlink" x="0px" y="0px"
	 viewBox="0 0 455.731 455.731" style="enable-background:new 0 0 455.731 455.731;" xml:space="preserve">
<g>
	<path d="M188.729,165.175h-3.73c-3.68,0-6.66,2.99-6.66,6.67v68.14c0,3.68,2.98,6.67,6.66,6.67h3.73c3.68,0,6.67-2.99,6.67-6.67
		v-68.14C195.399,168.165,192.409,165.175,188.729,165.175z"/>
	<path d="M266.209,165.175c-2.36,0-4.49,0.96-6.03,2.5c-1.55,1.54-2.5,3.68-2.5,6.03v39.35c0,0-34.07-44.44-34.59-45.02
		c-1.63-1.83-4.03-2.95-6.69-2.85c-4.64,0.17-8.2,4.23-8.2,8.87v64.07c0,4.71,3.82,8.53,8.53,8.53c2.36,0,4.49-0.96,6.03-2.5
		c1.55-1.54,2.5-3.68,2.5-6.03v-39.12c0,0,34.59,44.83,35.1,45.31c1.51,1.43,3.54,2.32,5.77,2.34c4.74,0.04,8.61-4.15,8.61-8.89
		v-64.06C274.739,168.994,270.919,165.175,266.209,165.175z"/>
	<path d="M161.699,229.584h-25.6v-55.88c0-4.71-3.82-8.53-8.53-8.53c-2.36,0-4.49,0.96-6.03,2.5c-1.55,1.54-2.5,3.68-2.5,6.03v64.42
		c0,4.71,3.82,8.53,8.53,8.53h34.13c4.71,0,8.53-3.82,8.53-8.53c0-2.36-0.96-4.49-2.5-6.04
		C166.189,230.534,164.049,229.584,161.699,229.584z"/>
	<path d="M330.199,182.235c4.71,0,8.53-3.82,8.53-8.53c0-4.71-3.82-8.53-8.53-8.53h-34.13c-4.71,0-8.53,3.82-8.53,8.53v64.42
		c0,4.71,3.82,8.53,8.53,8.53h34.13c4.71,0,8.53-3.82,8.53-8.53c0-2.36-0.96-4.49-2.5-6.04c-1.54-1.55-3.68-2.5-6.03-2.5h-25.6
		v-15.14h25.6c4.71,0,8.53-3.82,8.53-8.53c0-2.36-0.96-4.49-2.5-6.03c-1.54-1.55-3.68-2.5-6.03-2.5h-25.6v-15.15H330.199z"/>
	<path d="M0,0v455.731h455.731V0H0z M394.589,209.514c-0.17,2.66-0.55,6.06-1.32,10.09c-2.05,12.85-6.41,25.12-12.75,36.55
		c-2.98,5.39-17.61,25.89-22.1,31.29c-24.66,29.71-65.95,63.99-135,97.32c-6.45,3.11-13.8-2.07-13.01-9.18l3.48-31.32
		c0.56-4.99-3.05-9.5-8.04-10.03c-81.74-8.55-144.82-64.18-144.82-131.52c0-73.27,74.67-132.67,166.79-132.67
		c89.52,0,162.57,56.1,166.62,126.51C394.549,198.594,394.879,205.115,394.589,209.514z"/>
</g>
<g>
</g>
<g>
</g>
<g>
</g>
<g>
</g>
<g>
</g>
<g>
</g>
<g>
</g>
<g>
</g>
<g>
</g>
<g>
</g>
<g>
</g>
<g>
</g>
<g>
</g>
<g>
</g>
<g>
</g>
</svg>
